<svg width="91" height="108" viewBox="0 0 91 108" fill="none" xmlns="http://www.w3.org/2000/svg">
<path d="M35.5282 69.3988L43.1784 66.3094L49.0206 51.0479L56.8089 55.0607C56.8089 55.0607 56.0581 56.5666 54.4487 60.2989C53.823 61.7357 51.7649 65.7528 50.9278 67.7074C50.1531 69.5146 48.8771 71.0621 47.2508 72.167C45.6244 73.2719 43.7156 73.888 41.7502 73.9423L34.5703 74.1279L35.5282 69.3988Z" fill="#FFBF9D"/>
<path d="M31.7271 66.4475L30.588 65.2307C30.3666 65.0855 30.1061 65.0118 29.8415 65.0193L26.1825 65.1314C25.8409 65.1644 25.5111 65.2738 25.2176 65.4516C24.9241 65.6294 24.6743 65.8709 24.4868 66.1584L23.1535 68.4236C23.1535 68.4236 22.2604 69.9727 22.3725 70.3524C22.4225 70.51 22.5291 70.6436 22.6717 70.7272C22.8143 70.8109 22.9829 70.8388 23.1449 70.8054C23.1449 70.8054 23.2743 71.5217 23.5117 71.6684C23.649 71.7376 23.799 71.7782 23.9525 71.7878C24.106 71.7975 24.2599 71.7759 24.4048 71.7245C24.4678 71.8604 24.5702 71.9742 24.6987 72.0512C24.8272 72.1281 24.9759 72.1647 25.1254 72.156C25.1896 72.15 25.2531 72.1384 25.3152 72.1214C25.7467 71.9877 25.9452 71.1463 25.9452 71.1463L27.8006 70.8054C27.8006 70.8054 30.4671 72.5874 31.4078 73.7524C32.3484 74.9175 34.8079 74.0286 34.8079 74.0286L35.7269 69.6275L31.7271 66.4475Z" fill="#FFBF9D"/>
<path d="M29.0298 66.9696C28.7695 67.0502 28.4996 67.0952 28.2272 67.1034C27.7224 67.1594 27.0104 67.181 26.2036 67.2846L26.2899 67.2199C26.1512 67.5178 25.9926 67.8061 25.8152 68.0828C25.328 68.8558 24.7355 69.5572 24.0548 70.1669C23.7874 70.4355 23.4767 70.6572 23.1357 70.8227C23.1357 70.7925 23.4594 70.5336 23.9426 70.0461C24.5772 69.4153 25.1401 68.7164 25.6211 67.962C25.798 67.6729 25.9576 67.3881 26.0914 67.099L26.1173 67.043H26.1777C27.0018 66.9523 27.7138 66.961 28.2186 66.9437C28.4892 66.9242 28.761 66.9329 29.0298 66.9696Z" fill="#FF9A6C"/>
<path d="M29.112 68.7171C28.896 68.8224 28.6614 68.884 28.4216 68.8983C27.8256 68.9807 27.22 68.9603 26.6309 68.8379L26.7647 68.7645C26.6871 68.9905 26.5978 69.2123 26.4972 69.429C26.1635 70.1174 25.6956 70.7321 25.1207 71.2369C24.8964 71.4594 24.6292 71.634 24.3354 71.7504C24.5484 71.5271 24.7731 71.3154 25.0086 71.1161C25.5405 70.5987 25.9785 69.9928 26.303 69.3255C26.4028 69.1192 26.4907 68.9075 26.5662 68.6912L26.6007 68.5963H26.6957C27.492 68.7452 28.3048 68.7858 29.112 68.7171Z" fill="#FF9A6C"/>
<path d="M33.7633 69.6189L30.497 68.1001C30.0587 67.8561 29.5732 67.7089 29.0731 67.6686C28.5383 67.7155 28.0223 67.8885 27.5673 68.1734L25.8068 69.0795C25.7119 69.1313 25.6083 69.1917 25.5781 69.291C25.5479 69.3902 25.6299 69.5628 25.7291 69.662C26.1836 70.0919 26.7783 70.3428 27.4033 70.3682C28.0284 70.3935 28.6414 70.1918 29.1292 69.8001C29.3676 70.5778 29.7399 71.3079 30.2295 71.9575C30.4798 72.2832 30.8099 72.5388 31.1878 72.6998C31.5657 72.8608 31.9786 72.9216 32.3869 72.8766" fill="#FFBF9D"/>
<path d="M32.3782 72.9197C32.351 72.9331 32.3219 72.9418 32.2919 72.9456C32.2043 72.9672 32.1146 72.9788 32.0244 72.9801C31.6816 72.9814 31.3438 72.8984 31.0406 72.7385C30.571 72.4928 30.1727 72.1302 29.8842 71.6857C29.5261 71.1147 29.2365 70.5035 29.0212 69.8648L29.1852 69.9036C28.9231 70.1237 28.62 70.2897 28.2934 70.3919C27.9668 70.4941 27.6232 70.5305 27.2824 70.4991C26.9119 70.4738 26.5506 70.3724 26.2209 70.2014C26.0521 70.1121 25.8943 70.0035 25.7506 69.8778C25.6727 69.8135 25.6019 69.7412 25.5392 69.662C25.4985 69.6128 25.4693 69.5551 25.4536 69.4931C25.4379 69.4312 25.4362 69.3666 25.4486 69.3039C25.4626 69.2524 25.4871 69.2044 25.5205 69.1629C25.5539 69.1213 25.5955 69.087 25.6427 69.0623C25.7204 69.0148 25.7851 68.9846 25.8542 68.9458L26.2598 68.7386L27.058 68.3072C27.5539 68.0167 28.0826 67.7864 28.6329 67.6211C29.1613 67.5259 29.7063 67.6094 30.1819 67.8584C30.6134 68.0569 31.0449 68.2554 31.3901 68.4323L33.116 69.2953C33.3329 69.3929 33.542 69.5069 33.7417 69.6361C33.5133 69.5685 33.2911 69.4819 33.0772 69.3772L31.3081 68.5963L30.0913 68.0526C29.6527 67.8277 29.1514 67.7563 28.6674 67.8498C28.1365 68.0158 27.6268 68.2431 27.1486 68.5272L26.3547 68.9587L25.9491 69.1701C25.811 69.2392 25.6643 69.3082 25.6557 69.3772C25.6471 69.4463 25.7549 69.6145 25.8887 69.7224C26.0204 69.8369 26.1653 69.9354 26.3202 70.0158C26.6219 70.1722 26.9521 70.2661 27.291 70.292C27.9214 70.3533 28.5506 70.1642 29.0428 69.7656L29.155 69.6706L29.2025 69.8087C29.4036 70.4367 29.6742 71.0401 30.0093 71.608C30.2734 72.0387 30.6414 72.3962 31.0794 72.6479C31.4775 72.8606 31.9282 72.9549 32.3782 72.9197Z" fill="#FF9A6C"/>
<path d="M76.2386 26.8676C76.2688 24.4168 76.6701 21.9746 76.5579 19.5325C76.4457 17.0903 75.8201 14.5316 74.1114 12.7754C72.4027 11.0193 69.4212 10.3548 67.4364 11.7572L67.0049 13.8455C67.7902 23.295 67.6866 32.8955 68.4719 42.3449C68.5755 43.5876 69.5808 44.7138 70.1461 45.8227C70.7113 46.9316 71.8461 47.8506 73.0888 47.773C74.7155 47.6737 75.7812 46.0255 76.2861 44.4721C78.1414 38.8585 76.1652 32.7919 76.2386 26.8676Z" fill="#263238"/>
<path d="M70.3445 14.1605C70.0172 13.5379 69.5967 12.969 69.0975 12.4734C68.8457 12.227 68.5414 12.0407 68.2074 11.9287C67.8734 11.8166 67.5183 11.7815 67.1688 11.8262C67.0042 11.8467 66.8476 11.909 66.7139 12.0072C66.5802 12.1054 66.4739 12.2362 66.4051 12.3871C66.2972 12.6978 66.5302 13.1163 66.8581 13.0861L66.9272 13.1465C67.6607 13.7966 68.4072 14.4309 69.1666 15.0494C69.3478 15.2184 69.5603 15.3503 69.7922 15.4377C69.9088 15.4802 70.035 15.489 70.1564 15.463C70.2777 15.4371 70.3893 15.3775 70.4783 15.291C70.7501 14.989 70.5516 14.51 70.3445 14.1605Z" fill="#FF725E"/>
<path d="M71.7297 16.5682C69.2875 13.5823 66.0083 11.8607 62.1508 11.8219C59.9934 11.7831 59.0743 12.2534 57.5081 12.659C55.9397 13.0376 54.5535 13.9536 53.5902 15.2479C52.4813 16.8228 51.5493 18.5875 51.3379 20.5076C51.0614 22.4695 50.9675 24.4527 51.0574 26.4319C51.1479 28.4207 51.7871 30.3457 52.9042 31.9937L57.9266 32.8566C60.701 32.9516 63.5143 33.0422 66.2197 32.4252C68.9251 31.8081 71.5485 30.3368 72.994 27.968C75.0047 24.6542 74.1676 19.5497 71.7297 16.5682Z" fill="#263238"/>
<path d="M67.2637 16.5336L60.5671 13.8714L58.8153 14.0742C54.8802 14.0742 52.1618 18.4322 52.1359 21.6165C52.11 25.1633 52.2136 29.4867 52.7745 32.0972C53.9093 37.3483 58.3838 37.7841 58.3838 37.7841C58.3838 37.7841 58.2932 40.5845 58.2587 42.3449L68.515 41.6071L69.0284 18.3329C69.0129 17.8665 68.823 17.423 68.4962 17.0898C68.1695 16.7567 67.7297 16.5582 67.2637 16.5336Z" fill="#FFBF9D"/>
<path d="M60.6491 30.8675C60.6077 30.5991 60.4696 30.3551 60.2608 30.1814C60.0708 30.0178 59.8324 29.9212 59.5821 29.9064C59.3318 29.8915 59.0836 29.9594 58.8757 30.0995C58.6599 30.2658 58.4922 30.4865 58.3899 30.739C58.2875 30.9915 58.2542 31.2667 58.2932 31.5363C58.4085 31.6982 58.5571 31.8335 58.729 31.9332C58.9009 32.0329 59.0922 32.0947 59.2899 32.1145C59.3517 32.1188 59.4137 32.1188 59.4755 32.1145C59.7956 32.1211 60.1055 32.0018 60.3384 31.7822C60.4556 31.6629 60.5444 31.5187 60.5982 31.3603C60.6519 31.202 60.6694 31.0335 60.6491 30.8675Z" fill="#FF9A6C"/>
<path d="M53.9092 26.0996C53.9159 26.277 53.992 26.4447 54.1212 26.5665C54.2503 26.6884 54.4221 26.7547 54.5995 26.7511C54.6864 26.7529 54.7727 26.7373 54.8535 26.7054C54.9343 26.6735 55.0079 26.6258 55.0702 26.5652C55.1324 26.5046 55.1819 26.4322 55.216 26.3523C55.25 26.2724 55.2678 26.1865 55.2683 26.0996C55.2594 25.9222 55.182 25.7552 55.0525 25.6336C54.9229 25.5121 54.7513 25.4456 54.5737 25.4481C54.487 25.4463 54.4009 25.4619 54.3204 25.4939C54.2398 25.5259 54.1664 25.5736 54.1046 25.6343C54.0427 25.6949 53.9935 25.7673 53.96 25.8472C53.9264 25.9271 53.9092 26.0129 53.9092 26.0996Z" fill="#263238"/>
<path d="M53.3352 23.3899C53.4215 23.4719 53.9177 23.0663 54.6296 23.0274C55.3416 22.9886 55.9241 23.3252 55.9931 23.2302C56.0622 23.1353 55.9327 23.0318 55.6911 22.8764C55.3627 22.6747 54.9798 22.5797 54.5951 22.6046C54.2152 22.6234 53.8511 22.7624 53.5552 23.0016C53.3568 23.1871 53.2877 23.3511 53.3352 23.3899Z" fill="#263238"/>
<path d="M58.0299 29.1243C57.6384 29.0215 57.2351 28.9707 56.8303 28.9733C56.6448 28.9733 56.4636 28.9388 56.4247 28.8093C56.4013 28.6185 56.4343 28.425 56.5197 28.2527C56.6707 27.791 56.8303 27.3078 56.9943 26.7986C57.6502 24.7361 58.1162 23.0404 58.0299 23.0145C57.9436 22.9886 57.3481 24.6412 56.6923 26.708L56.2608 28.1664C56.1546 28.3978 56.1347 28.6595 56.2047 28.9042C56.2345 28.9685 56.2789 29.025 56.3343 29.0691C56.3898 29.1133 56.4547 29.144 56.524 29.1588C56.6288 29.1813 56.7362 29.19 56.8433 29.1847C57.2398 29.2114 57.6381 29.1911 58.0299 29.1243Z" fill="#263238"/>
<path d="M58.375 37.7798C60.8714 37.681 63.2914 36.8908 65.365 35.4973C65.365 35.4973 63.6779 39.2727 58.3491 39.0699L58.375 37.7798Z" fill="#FF9A6C"/>
<path d="M60.2089 29.5083C60.0924 29.5083 60.1313 30.3022 59.4841 30.902C58.8368 31.5018 57.9868 31.4629 57.9868 31.5751C57.9868 31.6873 58.1853 31.7175 58.5391 31.7089C59.0058 31.6904 59.4507 31.5069 59.7947 31.1911C60.124 30.8894 60.3235 30.4718 60.3513 30.0261C60.36 29.6938 60.265 29.504 60.2089 29.5083Z" fill="#263238"/>
<path d="M53.5814 20.8312C53.7152 20.9995 54.2675 20.8528 54.9233 20.87C55.5792 20.8873 56.1315 21.0297 56.2695 20.87C56.3299 20.7881 56.248 20.6198 56.0106 20.4386C55.6898 20.23 55.3146 20.1205 54.9319 20.1236C54.5492 20.1133 54.1717 20.2137 53.8446 20.4127C53.6073 20.5766 53.5253 20.7449 53.5814 20.8312Z" fill="#263238"/>
<path d="M61.8871 25.9184C61.8907 26.0956 61.8252 26.2672 61.7044 26.3969C61.5835 26.5266 61.4169 26.6041 61.2399 26.6131C61.1536 26.6213 61.0665 26.6123 60.9838 26.5865C60.901 26.5607 60.8242 26.5186 60.7579 26.4628C60.6916 26.4069 60.6371 26.3384 60.5976 26.2612C60.5582 26.184 60.5345 26.0998 60.528 26.0133C60.5243 25.8364 60.5891 25.6648 60.7089 25.5346C60.8287 25.4043 60.9943 25.3254 61.1709 25.3143C61.2578 25.306 61.3454 25.3152 61.4287 25.3412C61.512 25.3672 61.5892 25.4096 61.6559 25.4658C61.7227 25.5221 61.7775 25.5911 61.8172 25.6688C61.8569 25.7465 61.8807 25.8314 61.8871 25.9184Z" fill="#263238"/>
<path d="M63.2252 23.1051C63.1432 23.1957 62.6211 22.8246 61.8876 22.8376C61.1541 22.8505 60.6277 23.2302 60.5457 23.1396C60.4637 23.049 60.5888 22.9412 60.8218 22.7642C61.1336 22.5395 61.5076 22.4173 61.8919 22.4147C62.2726 22.4063 62.646 22.5197 62.9577 22.7384C63.1864 22.9066 63.2683 23.0663 63.2252 23.1051Z" fill="#263238"/>
<path d="M62.7847 20.7665C62.6466 20.9348 62.0771 20.7665 61.3996 20.7665C60.7222 20.7665 60.144 20.9002 60.0103 20.7277C59.9499 20.6457 60.0405 20.4774 60.2864 20.2962C60.6274 20.0965 61.0176 19.9963 61.4126 20.0071C61.8049 20.0026 62.1901 20.112 62.5215 20.3221C62.7674 20.5119 62.8494 20.6845 62.7847 20.7665Z" fill="#263238"/>
<path d="M68.1265 27.2301C68.1265 26.8374 68.5105 25.8838 68.8988 25.8019C69.9301 25.5818 71.807 25.5602 71.971 28.2009C72.1953 31.8124 68.5191 31.2903 68.5191 31.1868C68.5191 31.0832 68.1912 28.5935 68.1265 27.2301Z" fill="#FFBF9D"/>
<path d="M69.4209 29.8061C69.4209 29.8061 69.4856 29.8492 69.5935 29.888C69.7456 29.9499 69.916 29.9499 70.0681 29.888C70.4392 29.7241 70.724 29.0984 70.7024 28.4469C70.6918 28.137 70.6122 27.8333 70.4694 27.558C70.4289 27.4469 70.3617 27.3474 70.2736 27.2684C70.1856 27.1894 70.0794 27.1333 69.9646 27.105C69.8916 27.0906 69.8159 27.1021 69.7505 27.1375C69.6851 27.173 69.6342 27.2301 69.6064 27.2991C69.5633 27.4027 69.6064 27.4761 69.5719 27.4804C69.5374 27.4847 69.4899 27.4243 69.5115 27.2733C69.5258 27.1827 69.5717 27.1002 69.641 27.0403C69.6871 26.9993 69.7412 26.9683 69.7998 26.949C69.8584 26.9297 69.9204 26.9226 69.9818 26.9281C70.1322 26.9462 70.2752 27.0036 70.3964 27.0945C70.5176 27.1854 70.6127 27.3065 70.6722 27.4458C70.8445 27.7491 70.9408 28.0896 70.9527 28.4383C70.9742 29.1675 70.642 29.8708 70.1328 30.052C70.0377 30.0865 69.936 30.0993 69.8353 30.0896C69.7345 30.0799 69.6372 30.0479 69.5503 29.9959C69.4209 29.8967 69.4209 29.8147 69.4209 29.8061Z" fill="#FF9A6C"/>
<path d="M69.0368 25.8106L68.1264 26.7512C64.1654 22.9585 56.4246 13.4658 56.8604 14.0311C58.6659 13.36 60.6111 13.1538 62.5172 13.4313C65.4642 13.9319 71.0476 15.4075 70.9613 18.881C70.875 22.3544 69.0368 25.8106 69.0368 25.8106Z" fill="#263238"/>
<path d="M74.2838 25.0252C74.2721 24.9545 74.2533 24.8851 74.2277 24.8181C74.162 24.6217 74.0797 24.4311 73.9818 24.2486C73.6079 23.5801 73.0925 23.0014 72.4716 22.5528C71.5563 21.8954 70.5346 21.4006 69.4512 21.0901C68.2431 20.6975 66.8839 20.3911 65.5463 19.7957C64.2849 19.2701 63.0889 18.5997 61.9823 17.7979C61.0772 17.1425 60.2338 16.4059 59.4624 15.5974C58.945 15.0505 58.4595 14.4742 58.0083 13.8714L57.6459 13.3709C57.6055 13.3104 57.5592 13.2541 57.5078 13.2026C57.5381 13.269 57.5742 13.3325 57.6157 13.3925C57.689 13.5133 57.7969 13.6902 57.9479 13.9103C58.3799 14.5346 58.8542 15.1286 59.3675 15.688C61.0706 17.5397 63.1552 19.0001 65.4773 19.9683C66.7626 20.4554 68.0716 20.8774 69.3995 21.2325C70.478 21.5265 71.4992 22.0006 72.4198 22.6348C73.0341 23.0664 73.5526 23.6202 73.943 24.2615C74.1673 24.7318 74.2623 25.0252 74.2838 25.0252Z" fill="#455A64"/>
<path d="M73.2308 25.5818C73.2426 25.3117 73.1955 25.0423 73.0927 24.7922C72.8203 24.1021 72.3467 23.5099 71.7336 23.0922C70.8159 22.501 69.7888 22.1005 68.7132 21.9142C67.4261 21.6563 66.1715 21.2569 64.9722 20.7233C63.778 20.1784 62.6561 19.4871 61.6326 18.6652C60.7999 17.991 60.0341 17.2382 59.3457 16.4171C58.8768 15.8603 58.4444 15.2737 58.0513 14.661L57.7449 14.1562C57.7133 14.0954 57.6741 14.0389 57.6284 13.9879C57.6525 14.0518 57.6813 14.1139 57.7147 14.1734L57.9909 14.6999C58.3581 15.3287 58.7705 15.93 59.2249 16.4991C59.905 17.3418 60.6699 18.1125 61.5074 18.7989C62.537 19.6372 63.6695 20.3404 64.8773 20.8916C66.0873 21.4315 67.3556 21.8297 68.6571 22.0782C69.7132 22.2541 70.7247 22.6353 71.6343 23.2C72.2359 23.596 72.7095 24.1581 72.9978 24.8181C73.0987 25.065 73.1767 25.3206 73.2308 25.5818Z" fill="#455A64"/>
<path d="M68.916 31.9289C68.916 31.903 69.2224 31.8642 69.7574 31.7218C70.5076 31.5052 71.1983 31.12 71.7767 30.5956C72.6242 29.8025 73.268 28.8167 73.6537 27.722C74.1465 26.3877 74.4119 24.9802 74.439 23.5582C74.4553 22.8234 74.396 22.0889 74.2621 21.3662C73.9 19.5486 73.0464 17.8652 71.794 16.4991C71.0576 15.7171 70.2453 15.0104 69.3691 14.3892C69.3691 14.3892 69.4424 14.415 69.5719 14.4927C69.7013 14.5704 69.8868 14.6739 70.1155 14.8379C70.771 15.2875 71.3757 15.8069 71.9191 16.3869C72.733 17.2464 73.3914 18.2406 73.8651 19.3253C74.1398 19.9687 74.3494 20.638 74.4908 21.3231C74.6296 22.0612 74.6917 22.8116 74.6763 23.5625C74.6504 25.0113 74.3745 26.4447 73.8608 27.7996C73.4524 28.92 72.7753 29.923 71.8889 30.7208C71.2839 31.247 70.562 31.6212 69.7833 31.8124C69.5714 31.8605 69.3567 31.8951 69.1404 31.916C69.066 31.9261 68.991 31.9304 68.916 31.9289Z" fill="#455A64"/>
<path d="M73.5117 76.3328L52.162 79.4351C44.1407 81.7047 35.6923 82.3692 26.8599 81.5925L58.9923 96.5822L71.8936 96.7807C71.8936 96.7807 75.8201 96.7807 76.5062 93.3547C77.1922 89.9288 77.956 79.4955 77.956 79.4955C77.956 79.4955 75.4059 77.2863 73.5117 76.3328Z" fill="#263238"/>
<g opacity="0.3">
<path d="M73.447 85.3205C73.8 87.4587 73.9273 89.628 73.8267 91.7928C74.4824 91.0729 74.9655 90.213 75.2391 89.2784C75.5128 88.3438 75.5698 87.3592 75.4059 86.3992C75.2203 85.3464 74.7802 84.1858 75.3325 83.2667C75.7036 82.6497 76.6831 81.942 76.5407 81.2387C76.5407 81.2387 75.6777 81.2387 74.9054 81.2085C74.2797 81.1826 72.981 81.1438 72.981 81.1438C73.5398 82.486 73.6606 83.9704 73.3261 85.3853" fill="black"/>
</g>
<path d="M58.2929 41.4647L68.6657 40.3428L70.5642 42.0688L63.16 46.4267L59.8936 48.1181L56.6662 47.1387L55.6436 45.2143L58.2929 41.4647Z" fill="#FFBF9D"/>
<path d="M44.3086 54.0941C44.3086 54.0941 47.562 47.8549 48.3645 46.4914C49.7366 44.1657 52.2996 42.8497 52.2996 42.8497L58.2929 41.4647C58.2929 41.4647 57.6716 44.485 61.3996 44.6749C66.1459 44.9381 69.0929 40.3903 69.0929 40.3903C69.0929 40.3903 74.5037 40.9469 75.9966 41.5725C77.4896 42.1982 81.7181 43.9716 82.3394 49.5895L83.7892 58.7671L72.3549 59.6301L72.5103 71.8496L67.6518 75.8236C67.6518 75.8236 53.702 80.626 52.8088 80.9409C52.3773 81.092 52.4895 75.1634 51.4928 70.0805L49.6115 65.5111C48.85 63.686 48.3993 61.7463 48.2782 59.7724C48.2049 58.478 48.2394 57.4856 48.2394 57.4856C48.2394 57.4856 45.3053 56.4802 44.3086 54.0941Z" fill="#455A64"/>
<path d="M53.318 76.1515L72.4887 70.3999L72.355 59.6387L82.1151 58.8965C82.1151 58.8965 81.3384 64.4713 81.2219 67.3277C81.058 71.4397 79.0645 77.1871 77.7701 78.4038C76.4756 79.6206 52.8218 80.9496 52.8218 80.9496L53.318 76.1515Z" fill="#FFBF9D"/>
<path d="M42.445 79.5343C42.5374 79.6926 42.6843 79.8118 42.8582 79.8697C43.032 79.9277 43.221 79.9204 43.3899 79.8493C43.8214 79.6767 43.7049 78.8051 43.7049 78.8051L45.7458 78.3046C45.7458 78.3046 48.5634 79.8321 49.6292 80.8935C50.6949 81.9549 53.0379 80.846 53.0379 80.846L53.5254 76.3716L49.4566 73.2261C49.4566 73.2261 49.7068 73.4159 49.3918 72.7946C49.0769 72.1732 47.9032 72.5098 47.9032 72.5098C47.6961 72.2034 46.9065 72.1517 46.9065 72.1517L43.597 72.7946C43.2612 72.8599 42.9443 72.9996 42.6695 73.2035C42.3947 73.4073 42.1691 73.6701 42.0092 73.9725L40.7708 76.3155C40.7708 76.3155 40.1495 77.981 40.3005 78.3477C40.3656 78.4995 40.4842 78.6221 40.6338 78.6921C40.7834 78.7621 40.9535 78.7747 41.1117 78.7275C41.1117 78.7275 41.3576 79.7716 41.6381 79.7846C41.9215 79.7495 42.1954 79.6601 42.445 79.5214V79.5343Z" fill="#FFBF9D"/>
<path d="M49.3007 75.8236C49.3007 75.8581 48.8693 75.8495 48.1444 75.9358C47.2213 76.0534 46.3184 76.2958 45.4606 76.6563C44.9895 76.8576 44.5351 77.0957 44.1014 77.3683C43.7174 77.6229 43.3118 77.8429 43.2039 78.1493C43.1806 78.2151 43.1748 78.2859 43.1869 78.3546C43.199 78.4234 43.2286 78.4879 43.2729 78.5419C43.3411 78.6315 43.4342 78.699 43.5405 78.7361C43.7217 78.7922 43.8296 78.7361 43.8382 78.7361C43.8468 78.7361 43.7389 78.8353 43.5189 78.7965C43.3886 78.7674 43.2708 78.6979 43.1823 78.598C43.1188 78.5297 43.0742 78.446 43.0531 78.3552C43.0319 78.2644 43.0348 78.1696 43.0615 78.0802C43.1352 77.8791 43.2674 77.7048 43.4412 77.5797C43.6138 77.4459 43.795 77.3122 43.9978 77.1784C45.2339 76.3688 46.654 75.8836 48.1271 75.7675C48.5188 75.7227 48.9151 75.7416 49.3007 75.8236Z" fill="#FF9A6C"/>
<path d="M49.7024 77.9335C49.7024 77.9939 48.3389 78.0457 46.682 78.2701C45.0251 78.4945 43.6961 78.8051 43.6616 78.7447C43.9354 78.613 44.2257 78.5187 44.5246 78.4643C45.2238 78.2884 45.9326 78.153 46.6475 78.0587C47.3628 77.9616 48.0831 77.9054 48.8049 77.8904C49.1046 77.8637 49.4066 77.8783 49.7024 77.9335Z" fill="#FF9A6C"/>
<path d="M42.4578 79.448C42.4228 79.3342 42.3997 79.2171 42.3888 79.0985C42.3443 78.7738 42.3184 78.4468 42.3111 78.1191C42.3074 77.891 42.3218 77.6631 42.3543 77.4373C42.3942 77.1715 42.4866 76.9163 42.6261 76.6865C42.9131 76.1546 43.3033 75.6852 43.7739 75.3058C44.2393 74.9253 44.7565 74.6129 45.3099 74.3781C45.7687 74.2078 46.2471 74.0962 46.7338 74.0459C47.1653 73.9984 47.476 73.9855 47.709 73.9725C47.8277 73.955 47.9484 73.955 48.0671 73.9725C47.6403 74.0701 47.208 74.1422 46.7727 74.1883C46.3031 74.2572 45.8429 74.3787 45.4005 74.5507C44.8697 74.7877 44.3733 75.0954 43.9249 75.4654C43.4777 75.8251 43.1003 76.2639 42.8117 76.7599C42.5813 77.1688 42.4665 77.6327 42.4794 78.1018C42.4449 78.9346 42.5053 79.448 42.4578 79.448Z" fill="#FF9A6C"/>
<path d="M46.8115 73.0232C46.8115 73.0578 46.3153 73.1095 45.517 73.2606C44.7188 73.4116 43.5322 73.5885 42.9281 74.7017C42.3116 75.546 41.8136 76.4708 41.4482 77.4503C41.3343 77.8665 41.2606 78.2928 41.2281 78.7231C41.1878 78.6098 41.1716 78.4893 41.1806 78.3693C41.1728 78.0444 41.2135 77.72 41.3015 77.4071C41.6298 76.3933 42.1194 75.439 42.7512 74.5809C42.9191 74.3209 43.1208 74.0844 43.351 73.8776C43.573 73.6871 43.8293 73.5407 44.1061 73.4461C44.5598 73.2888 45.0281 73.1775 45.5041 73.1139C45.9344 73.0291 46.3736 72.9987 46.8115 73.0232Z" fill="#FF9A6C"/>
<path d="M48.8263 80.2549C48.7516 80.2157 48.6808 80.1694 48.6148 80.1168L48.0237 79.7155C47.2788 79.2248 46.5066 78.7768 45.711 78.3736H45.7584L43.7218 78.8871L43.7865 78.7922C43.806 78.9613 43.806 79.1322 43.7865 79.3013C43.7738 79.4879 43.7063 79.6665 43.5924 79.8148C43.5216 79.8893 43.4298 79.9405 43.3292 79.9615C43.2364 79.9939 43.1381 80.0071 43.0401 80.0003C42.8375 79.9858 42.6465 79.9002 42.5007 79.7587C42.4654 79.7218 42.4322 79.6829 42.4015 79.6422V79.612L42.5223 79.6465L42.4576 79.6767C42.3737 79.7207 42.2873 79.7596 42.1987 79.7932C42.1084 79.8285 42.0162 79.8588 41.9225 79.8838C41.8732 79.8984 41.8227 79.9085 41.7715 79.914C41.706 79.9247 41.6389 79.9173 41.5774 79.8924C41.4788 79.83 41.4008 79.74 41.353 79.6336C41.3051 79.5444 41.2633 79.4522 41.2279 79.3574C41.1553 79.1706 41.0962 78.9788 41.0509 78.7835L41.1761 78.8569C41.0386 78.8991 40.892 78.9025 40.7527 78.8667C40.6134 78.8309 40.4866 78.7573 40.3865 78.6541C40.2823 78.5439 40.2211 78.4 40.2139 78.2485C40.2135 78.1124 40.2265 77.9765 40.2527 77.8429C40.3681 77.3234 40.521 76.8129 40.7101 76.3155L41.3702 75.0642L41.8017 74.2746C41.9296 74.0015 42.0858 73.7427 42.2677 73.5022C42.4655 73.271 42.7076 73.0817 42.9797 72.9456C43.2451 72.8236 43.5272 72.7422 43.8168 72.704L46.9321 72.1042H46.9579C47.1495 72.1187 47.3389 72.1534 47.5232 72.2078C47.7188 72.251 47.8955 72.3552 48.028 72.5055L47.9072 72.4796C48.0716 72.3886 48.2555 72.3387 48.4434 72.3342C48.6312 72.3297 48.8173 72.3707 48.9859 72.4537C49.2773 72.6378 49.4897 72.924 49.5814 73.2562L49.5511 73.2174L52.3558 75.3748L53.1109 75.9703C53.2018 76.0363 53.287 76.1099 53.3654 76.1903C53.2663 76.1391 53.1724 76.0784 53.085 76.0091L52.304 75.4439L49.4562 73.3469H49.4346V73.3167C49.3543 73.0276 49.1679 72.7795 48.9126 72.622C48.7703 72.5536 48.6136 72.5207 48.4558 72.5259C48.298 72.5312 48.1439 72.5745 48.0064 72.6522L47.9331 72.6867L47.8856 72.6263C47.7759 72.5126 47.6346 72.4344 47.48 72.4019C47.308 72.3543 47.1317 72.324 46.9536 72.3113H46.9795L43.8642 72.924C43.5922 72.9593 43.3273 73.0365 43.0789 73.1527C42.834 73.274 42.6166 73.4444 42.4403 73.6532C42.2704 73.8829 42.1257 74.1303 42.0088 74.391L41.5774 75.1807C41.3487 75.6121 41.1459 76.0436 40.9172 76.432C40.7392 76.9191 40.595 77.4179 40.4857 77.9249C40.4609 78.0427 40.4479 78.1626 40.4469 78.283C40.4526 78.3866 40.4955 78.4846 40.5677 78.5592C40.6419 78.6335 40.7348 78.6863 40.8366 78.7121C40.9384 78.738 41.0452 78.7358 41.1459 78.7059L41.2494 78.68V78.7792C41.2969 78.9648 41.353 79.1546 41.4177 79.3315C41.465 79.4934 41.5509 79.6415 41.668 79.763C41.6961 79.7714 41.7261 79.7714 41.7543 79.763L41.8794 79.7371C41.9666 79.7177 42.0518 79.6902 42.134 79.6551C42.216 79.6249 42.2979 79.5861 42.3799 79.5473L42.4403 79.5214L42.5655 79.5559V79.5775C42.589 79.611 42.6149 79.6427 42.6431 79.6724C42.7235 79.7581 42.8268 79.8191 42.9407 79.8481C43.0546 79.8772 43.1744 79.8731 43.286 79.8363C43.3549 79.8246 43.4183 79.7913 43.4672 79.7414C43.6193 79.4811 43.6758 79.1759 43.6269 78.8785V78.8008H43.6959L45.7412 78.3175H45.767C46.5622 78.7315 47.3278 79.2001 48.0582 79.7199C48.3128 79.9054 48.4897 80.0521 48.6321 80.1513C48.6992 80.1812 48.7641 80.2158 48.8263 80.2549Z" fill="#FF9A6C"/>
<path d="M38.8592 83.025C38.8592 83.025 25.3322 78.7749 21.0864 77.4157C13.7512 75.0426 8.97903 77.4416 7.46884 80.0564C5.50991 83.4522 10.2088 90.0754 12.021 91.5986C17.3843 96.1075 26.5792 96.7159 26.5792 96.7159L59.6393 96.6555L50.0043 83.5471L38.8592 83.025Z" fill="#263238"/>
<path d="M40.8871 89.1607C35.3781 89.8019 29.7963 89.042 24.6591 86.9515C23.7826 86.5553 22.8802 86.2194 21.958 85.9461C21.0464 85.7163 20.1013 85.6491 19.1663 85.7477C18.7952 85.7571 18.4299 85.841 18.0919 85.9945C17.7539 86.1479 17.4502 86.3677 17.1988 86.6408C16.5386 87.5038 16.8751 88.7465 17.2419 89.7734C17.6734 90.9815 18.1049 92.2156 18.9678 93.1821C19.9473 94.3083 21.3712 94.9555 22.7994 95.4042C25.5911 96.2672 28.5381 96.539 31.4636 96.6512L41.5085 96.1032L40.8871 89.1607Z" fill="#E0E0E0"/>
<path d="M21.4876 85.9505C21.5536 86.0315 21.6047 86.1235 21.6386 86.2223C21.7553 86.4799 21.8449 86.7488 21.9061 87.0249C22.123 87.9431 22.0849 88.903 21.7959 89.8011C21.5069 90.6992 20.9781 91.5013 20.2665 92.1207C20.0546 92.3063 19.8265 92.4724 19.5847 92.6169C19.4078 92.7161 19.3086 92.7593 19.3 92.7463C19.2913 92.7334 19.6624 92.4961 20.1629 92.0085C20.8196 91.3806 21.3092 90.5987 21.5872 89.7337C21.8652 88.8687 21.9229 87.948 21.7551 87.0551C21.6343 86.3647 21.4531 85.9634 21.4876 85.9505Z" fill="#263238"/>
<path d="M73.3863 82.1966C72.601 79.9701 72.4716 76.6995 67.626 75.1289C62.7805 73.5583 59.1215 76.5701 56.6319 77.6142C54.1422 78.6584 40.5376 86.1231 40.5376 86.1231C40.5376 86.1231 37.9746 90.6925 38.7038 92.7118C39.433 94.7311 42.7468 96.7246 42.7468 96.7246H57.9652C61.8917 96.7246 69.1837 96.5908 69.1837 96.5908C70.16 94.9904 71.0348 93.3303 71.8028 91.6201L71.9322 90.9643C71.9452 90.4422 74.1673 84.423 73.3863 82.1966Z" fill="#263238"/>
<path d="M64.9554 93.756C64.9356 93.8332 64.8971 93.9043 64.8432 93.9631C64.6956 94.1341 64.5275 94.2863 64.3427 94.4161C63.6632 94.8846 62.9408 95.2877 62.1853 95.62C61.6692 95.8606 61.1389 96.0695 60.5974 96.2456C59.9706 96.4429 59.3283 96.5872 58.6773 96.6771C57.1921 96.8249 55.6993 96.8826 54.2072 96.8497C51.0444 96.9015 48.1664 97.0223 46.0953 96.9964C45.0554 96.9964 44.214 96.9489 43.6358 96.8885C43.4128 96.869 43.191 96.8373 42.9714 96.7936C42.8936 96.7842 42.8169 96.7669 42.7427 96.7418C42.7427 96.7202 43.062 96.7763 43.6402 96.8065C44.2183 96.8367 45.0597 96.8583 46.0953 96.8497C48.1707 96.8497 51.0358 96.69 54.2072 96.6383C55.6918 96.6704 57.177 96.6185 58.6557 96.4829C59.2951 96.4045 59.9271 96.2746 60.5456 96.0946C61.0837 95.9285 61.6111 95.7296 62.1248 95.4991C62.8752 95.1835 63.597 94.8038 64.2823 94.3644C64.4686 94.2397 64.6408 94.095 64.7957 93.9329C64.9165 93.8293 64.9424 93.7517 64.9554 93.756Z" fill="#263238"/>
<path d="M42.7468 96.7246L42.544 96.6167C42.4146 96.5434 42.2247 96.4225 41.9788 96.2629C41.2632 95.7958 40.5929 95.2628 39.9767 94.6707C39.5304 94.2427 39.1494 93.7513 38.8462 93.2123C38.5364 92.5374 38.4575 91.7791 38.6219 91.0549C38.9919 89.3202 39.6125 87.6487 40.4643 86.0929V86.0713C42.9583 84.6992 45.819 83.1415 48.9429 81.463C50.5049 80.626 52.1316 79.7587 53.823 78.8742C54.6859 78.4427 55.5489 78.0112 56.4119 77.5797C57.2748 77.1482 58.1594 76.7167 59.0525 76.2507C60.2865 75.5746 61.6099 75.0764 62.9833 74.7708C63.658 74.6362 64.345 74.574 65.0329 74.5852C65.7059 74.6055 66.3745 74.7011 67.0263 74.87C68.29 75.1812 69.4765 75.7481 70.5127 76.5355C70.9945 76.9347 71.4211 77.3961 71.7813 77.9076C72.1124 78.4119 72.386 78.9518 72.5968 79.5171C72.8125 80.0694 72.9635 80.626 73.1189 81.1696C73.2969 81.6978 73.441 82.2368 73.5503 82.7834C73.6182 83.8275 73.5309 84.8759 73.2914 85.8944C73.0973 86.8652 72.86 87.7713 72.614 88.6127C72.4932 89.0442 72.3724 89.4455 72.2602 89.8381C72.148 90.2308 72.0186 90.6191 71.9582 90.9643C71.9064 91.2102 71.8676 91.3958 71.8244 91.6158C71.4088 92.9491 70.8214 94.2226 70.0769 95.4042C69.8132 95.8267 69.5019 96.2176 69.1492 96.5692L69.2053 96.4916C69.2528 96.4355 69.3132 96.3664 69.3865 96.2715C69.6152 95.9839 69.8284 95.6843 70.0251 95.374C70.7439 94.1853 71.3107 92.9111 71.7122 91.5813C71.9582 91.3742 71.9107 91.1714 71.8374 90.9255C71.9128 90.5318 72.0107 90.1428 72.1308 89.7604L72.4803 88.5394C72.7133 87.6764 72.9463 86.7875 73.1361 85.8253C73.3659 84.8229 73.4474 83.7922 73.3777 82.7661C73.2643 82.2305 73.1202 81.7018 72.9463 81.1826C72.7866 80.6389 72.6313 80.0866 72.4198 79.5473C72.2139 78.9953 71.9461 78.4684 71.6216 77.9767C71.2715 77.4818 70.8565 77.0362 70.3876 76.652C68.8358 75.489 66.9664 74.8267 65.0286 74.7535C64.3564 74.7424 63.6851 74.8046 63.0265 74.939C61.6693 75.2402 60.3617 75.7327 59.1431 76.4018C58.2802 76.8333 57.4172 77.351 56.4895 77.735C55.5618 78.1191 54.7636 78.5764 53.9006 79.0295C52.2135 79.8925 50.5825 80.7554 49.0206 81.6184L40.529 86.1964L40.5592 86.1619C39.7099 87.6999 39.0865 89.3522 38.7082 91.0678C38.5379 91.7676 38.6063 92.5041 38.9023 93.1605C39.1928 93.6948 39.5623 94.1821 39.9983 94.606C40.6034 95.2025 41.2604 95.744 41.9615 96.2241L42.5138 96.5951C42.6692 96.6771 42.7468 96.7246 42.7468 96.7246Z" fill="#263238"/>
<path d="M67.5136 91.0765C67.5136 91.0765 72.0485 91.6202 71.6472 93.838C71.2459 96.0558 69.7616 96.8023 69.7616 96.8023L57.4385 96.8281C57.4385 96.8281 64.7952 96.319 67.5136 91.0765Z" fill="#E0E0E0"/>
<path d="M67.954 90.0021C67.953 90.2181 67.9059 90.4314 67.8159 90.6277C67.649 91.1238 67.4011 91.5889 67.0824 92.0042C66.6526 92.6095 66.0515 93.0723 65.3564 93.3331C65.9287 92.9038 66.4537 92.4149 66.9227 91.8747C67.3183 91.2805 67.6633 90.6541 67.954 90.0021Z" fill="#263238"/>
<path d="M66.4006 90.8694C66.4079 91.4259 66.2583 91.9732 65.9691 92.4486C65.7477 92.9527 65.4089 93.3966 64.981 93.7431C64.9336 93.7042 65.378 93.1304 65.7793 92.3408C66.1806 91.5511 66.3229 90.8608 66.4006 90.8694Z" fill="#263238"/>
<path d="M72.1654 96.1853C72.1308 96.1853 72.4243 95.6071 72.7781 94.6535C73.707 92.1632 74.0136 89.4837 73.6712 86.848C73.5375 85.8426 73.3821 85.2256 73.4167 85.217C73.4849 85.3535 73.5343 85.4986 73.5634 85.6485C73.67 86.039 73.755 86.4351 73.8179 86.835C74.2497 89.4939 73.9392 92.2203 72.9205 94.7139C72.7666 95.0815 72.5923 95.4402 72.3984 95.7883C72.3367 95.9294 72.2585 96.0626 72.1654 96.1853Z" fill="#455A64"/>
<g opacity="0.3">
<path d="M69.6022 89.8812C69.5677 89.5835 69.4512 89.2297 69.1707 89.1693C68.8083 89.0959 68.5624 89.5102 68.42 89.8467C66.8321 93.4582 61.7018 96.2758 57.771 96.6512C59.6774 96.647 61.5805 96.4912 63.4622 96.1852C65.067 95.9448 66.5714 95.2569 67.803 94.2004C68.4153 93.6677 68.8963 93.0007 69.2084 92.2515C69.5205 91.5023 69.6553 90.6911 69.6022 89.8812Z" fill="black"/>
</g>
<path d="M39.5796 84.9667C38.8282 84.7557 38.0974 84.477 37.3963 84.1339C36.6676 83.8578 35.9656 83.5155 35.2993 83.1113C36.0498 83.3235 36.7803 83.6007 37.4826 83.9398C38.2116 84.2172 38.9135 84.561 39.5796 84.9667Z" fill="#263238"/>
<g opacity="0.2">
<path d="M43.9639 83.0596C38.0957 81.9377 32.206 80.941 26.2947 80.0694L21.8936 81.4588C23.1276 83.7543 25.5655 85.217 28.0983 85.821C30.6311 86.4251 33.2761 86.2827 35.8649 86.0454C38.7214 85.7822 41.6554 85.3809 44.1408 83.9484C44.3306 83.8405 44.5464 83.6766 44.5205 83.4565C44.4946 83.2365 44.2184 83.107 43.9639 83.0596Z" fill="black"/>
</g>
<path d="M15.08 65.5845L22.4756 81.9377C22.6252 82.271 22.8674 82.5543 23.1734 82.754C23.4794 82.9536 23.8362 83.0612 24.2016 83.0639L45.7757 83.3443L48.494 81.8816L44.2353 81.5709L37.6077 65.6665C37.5046 65.4191 37.331 65.2074 37.1085 65.0578C36.886 64.9082 36.6245 64.8273 36.3564 64.8251L15.6927 64.6698C15.5825 64.6658 15.4731 64.69 15.3749 64.7402C15.2766 64.7903 15.1928 64.8648 15.1315 64.9564C15.0701 65.0481 15.0331 65.1539 15.0241 65.2638C15.0151 65.3737 15.0344 65.4841 15.08 65.5845Z" fill="#E0E0E0"/>
<path d="M15.0801 65.5845C15.0448 65.5237 15.0228 65.456 15.0154 65.3861C15.0017 65.2825 15.013 65.1772 15.0483 65.0789C15.0836 64.9805 15.1418 64.8921 15.2182 64.8208C15.3361 64.7114 15.489 64.6472 15.6497 64.6396H17.5439L26.1951 64.6698L32.2099 64.7L35.5712 64.7216H36.4342C36.7537 64.7446 37.0569 64.8719 37.2971 65.084C37.5286 65.3011 37.6996 65.5747 37.7933 65.8779L38.1471 66.7409C40.0327 71.2585 42.1168 76.2551 44.326 81.5364L44.2224 81.4631L48.3344 81.7651H48.4811L48.9126 81.7953L48.5459 81.9938L45.8275 83.4565H45.7973H45.7671L29.4139 83.2321L25.7636 83.1804C25.1682 83.1804 24.5986 83.1804 24.0075 83.1459C23.7122 83.111 23.4282 83.0118 23.1755 82.8552C22.9228 82.6987 22.7074 82.4886 22.5448 82.2397C21.5825 80.2161 20.78 78.3564 19.999 76.6305L16.3832 68.5445C15.9517 67.5995 15.641 66.8617 15.4167 66.3483C15.3088 66.1066 15.2311 65.9168 15.1707 65.7787C15.1103 65.6406 15.0931 65.5802 15.0931 65.5802C15.1299 65.6415 15.163 65.7049 15.1923 65.7701L15.4598 66.331C15.6928 66.8358 16.0294 67.5694 16.4652 68.4884L20.15 76.5485C20.931 78.2442 21.7681 80.1514 22.7087 82.1189C22.8551 82.3433 23.0495 82.5325 23.2778 82.6728C23.5061 82.813 23.7627 82.9009 24.0291 82.9301C24.5813 82.956 25.1811 82.9517 25.755 82.9603L29.4053 83.0035L45.7585 83.2019H45.6981L48.4164 81.7349L48.4682 81.9636H48.3215L44.2095 81.6659H44.1361L44.1059 81.6011C41.9097 76.3112 39.8299 71.3146 37.9487 66.7927L37.5992 65.9513C37.5222 65.6769 37.3732 65.4281 37.1677 65.2307C36.9625 65.0456 36.7012 64.9347 36.4255 64.9157H35.5626L32.2013 64.8855L26.1908 64.8251L17.5309 64.7216H16.1761H15.641C15.5556 64.7247 15.4716 64.7453 15.3944 64.7819C15.3171 64.8186 15.2481 64.8706 15.1916 64.9348C15.1351 64.999 15.0922 65.074 15.0656 65.1553C15.039 65.2366 15.0293 65.3224 15.037 65.4076C15.0481 65.4673 15.0625 65.5264 15.0801 65.5845Z" fill="#263238"/>
<path d="M43.5837 83.3141C43.5435 83.2579 43.5102 83.197 43.4845 83.1329L43.2386 82.6065C43.0228 82.1146 42.7294 81.4501 42.3756 80.6475C41.655 78.9863 40.6756 76.6909 39.6227 74.1365C38.5699 71.5821 37.6379 69.265 36.995 67.5779C36.6714 66.715 36.4168 66.0462 36.2529 65.5672C36.1752 65.3472 36.1148 65.166 36.063 65.0149C36.0389 64.9508 36.0215 64.8843 36.0112 64.8165C36.0507 64.8724 36.0826 64.9334 36.1062 64.9977L36.3305 65.537C36.5333 66.0376 36.8052 66.7064 37.1331 67.5219C37.8321 69.2219 38.777 71.5174 39.8169 74.0588C40.8568 76.6002 41.8147 78.8871 42.5137 80.5871L43.3205 82.5719C43.4025 82.792 43.4716 82.9689 43.5276 83.1156C43.5576 83.1781 43.5766 83.2452 43.5837 83.3141Z" fill="#263238"/>
<path d="M30.2083 73.5109C30.2092 73.7212 30.1476 73.927 30.0312 74.1022C29.9149 74.2774 29.7492 74.4141 29.5551 74.495C29.361 74.5759 29.1472 74.5972 28.9409 74.5564C28.7346 74.5156 28.545 74.4144 28.3963 74.2657C28.2476 74.117 28.1465 73.9275 28.1056 73.7212C28.0648 73.5149 28.0862 73.3011 28.1671 73.107C28.2479 72.9129 28.3847 72.7471 28.5599 72.6308C28.7351 72.5145 28.9409 72.4529 29.1512 72.4537C29.4316 72.4537 29.7005 72.5651 29.8987 72.7634C30.097 72.9616 30.2083 73.2305 30.2083 73.5109Z" fill="white"/>
<path d="M51.1994 47.2034C51.2339 47.2034 50.9232 47.8031 50.4874 48.7697C49.3467 51.2926 48.6016 53.9763 48.2782 56.7262C48.1488 57.7833 48.1143 58.4521 48.0754 58.4521C48.0523 58.2976 48.0523 58.1406 48.0754 57.9861C48.0754 57.6884 48.0754 57.2569 48.1358 56.7219C48.3797 53.9373 49.1375 51.222 50.3709 48.7136C50.6082 48.2346 50.8024 47.8506 50.9707 47.6003C51.0306 47.4593 51.1074 47.326 51.1994 47.2034Z" fill="#263238"/>
<path d="M83.7895 58.7671C83.7125 58.7907 83.6327 58.8037 83.5522 58.806L82.8661 58.8707L80.3031 59.0864L71.5397 59.7466H71.4275V59.6344C71.3542 58.4694 71.2765 57.2397 71.1989 55.9798C71.0737 53.7792 70.9659 51.6649 70.9313 49.7707C70.8198 48.0644 71.2081 46.3625 72.0489 44.8734C72.6261 43.8691 73.4778 43.0504 74.504 42.5132C74.781 42.3743 75.0698 42.2603 75.367 42.1723C75.4703 42.14 75.5755 42.1141 75.682 42.0947C75.682 42.1292 75.2505 42.2198 74.5385 42.5909C73.5491 43.1466 72.7323 43.9649 72.1783 44.9554C71.3787 46.4295 71.0207 48.1028 71.1471 49.775C71.1902 51.6779 71.3024 53.7749 71.4275 55.9754C71.5052 57.2354 71.5786 58.4651 71.6519 59.6258L71.5311 59.5222L80.3031 58.944L82.892 58.793L83.5781 58.7671H83.7895Z" fill="#263238"/>
<path d="M62.2885 66.2403C62.1555 66.2145 62.0273 66.1679 61.9088 66.1023C61.7603 66.04 61.6162 65.9679 61.4773 65.8865C61.2912 65.7864 61.1111 65.6754 60.9379 65.5543C60.4789 65.2446 60.055 64.8858 59.6737 64.4842C59.2124 63.9865 58.8072 63.4396 58.4655 62.8532C58.1359 62.2602 57.874 61.6321 57.6846 60.9806C57.5343 60.4484 57.4417 59.9016 57.4084 59.3496C57.3958 59.1383 57.3958 58.9265 57.4084 58.7153C57.4091 58.5551 57.4206 58.395 57.4429 58.2364C57.4469 58.0993 57.4731 57.9637 57.5206 57.8351C57.5637 57.8351 57.4904 58.4176 57.581 59.3366C57.6352 59.8733 57.7407 60.4036 57.896 60.9202C58.0944 61.5519 58.3561 62.1619 58.677 62.741C59.0073 63.3121 59.3963 63.8471 59.8377 64.3375C60.2047 64.7349 60.6077 65.0974 61.0415 65.4205C61.775 65.9685 62.3101 66.2015 62.2885 66.2403Z" fill="#263238"/>
</svg>
