<svg width="90" height="136" viewBox="0 0 90 136" fill="none" xmlns="http://www.w3.org/2000/svg">
<path fill-rule="evenodd" clip-rule="evenodd" d="M56.2234 46.772C57.5584 45.2234 58.462 43.3256 58.311 41.199C57.876 35.0718 49.2451 36.4197 47.5662 39.5122C45.8873 42.6047 46.0868 50.449 48.2567 51.0017C49.122 51.2221 50.9653 50.6822 52.8415 49.5647L51.6639 57.7977H58.6172L56.2234 46.772Z" fill="#B28B67"/>
<path fill-rule="evenodd" clip-rule="evenodd" d="M61.3426 39.1594C61.5672 38.9395 61.6897 38.6255 61.7956 38.3275C61.9057 38.0178 62.0126 37.705 62.0857 37.3827C62.2317 36.7387 62.2331 35.9981 61.7682 35.4981C61.3954 35.0971 60.836 34.9172 60.3197 34.8781C59.9757 34.8521 59.6224 34.8997 59.2927 35.0068C58.9655 35.113 58.6835 35.3248 58.3664 35.4563C58.3543 34.7623 58.234 34.0362 57.8777 33.4436C57.5349 32.8735 56.9883 32.5535 56.3658 32.4689C55.7269 32.382 55.096 32.5298 54.5241 32.8354C54.3809 32.912 54.239 32.9922 54.1032 33.083C53.9896 33.159 53.8714 33.2505 53.738 33.2814C53.5893 33.3159 53.5156 33.2311 53.4189 33.1238C53.3056 32.9982 53.178 32.8874 53.0429 32.7893C52.4456 32.3554 51.6618 32.177 50.9698 32.4371C50.6509 32.5569 50.3409 32.7604 50.1246 33.0408C49.9318 33.2908 49.7942 33.6873 49.5281 33.8615C49.4151 33.9354 49.3354 33.8375 49.2326 33.7651C49.0781 33.6563 48.9308 33.5363 48.7745 33.4305C48.5549 33.2818 48.3172 33.1706 48.0626 33.1124C47.6899 33.0272 47.1749 33.0472 47.0683 33.5295C47.0283 33.7107 47.059 33.9045 47.0719 34.0871C47.0896 34.3378 47.1081 34.5884 47.1302 34.8387C47.1469 35.0287 47.168 35.2123 47.2043 35.3989C47.2237 35.4984 47.2843 35.6839 47.2411 35.7835C47.1871 35.908 46.9382 35.8372 46.8318 35.8415C46.6217 35.8501 46.4107 35.8865 46.2164 35.9753C46.0659 36.044 45.9076 36.1452 45.844 36.3157C45.805 36.4205 45.8153 36.5281 45.8337 36.6358C45.8558 36.7652 45.8305 36.8338 45.814 36.9643C45.5318 36.827 44.554 36.5219 44.4309 37.0216C44.39 37.188 44.4832 37.3761 44.5544 37.5164C44.6792 37.7626 44.8429 37.9876 45.0102 38.2021C45.3592 38.6497 45.7758 39.0358 46.2241 39.3659C45.6989 39.5967 45.5618 40.2773 46.0165 40.6827C46.2173 40.8618 46.4872 40.9016 46.7405 40.8902C46.8332 40.886 46.9668 40.8508 47.0397 40.8667C47.079 40.8753 47.121 40.9082 47.1754 40.9119C47.5328 40.936 47.9363 40.8509 48.2857 40.7726C48.9082 40.6329 49.4976 40.3414 49.9789 39.8975C50.1024 39.7836 50.2044 39.7181 50.3705 39.7198C50.5162 39.7212 50.6591 39.7607 50.8045 39.7643C51.1895 39.774 51.5366 39.5881 51.8941 39.4643C51.916 39.9415 52.0535 40.4671 52.251 40.8964C52.4121 41.2466 52.7485 41.2974 53.0791 41.3281C54.1361 41.4264 55.1969 41.3167 56.2553 41.3182C55.2308 41.5471 54.1721 41.6414 53.1566 41.9107C52.6976 42.0324 53.0481 42.3381 53.2444 42.5501C53.5675 42.8991 53.8078 43.3315 53.9745 43.787C54.4757 43.1414 55.3616 42.716 56.1464 42.9143C57.0136 43.1334 57.6243 44.2924 57.0697 45.1255C56.7478 45.6092 56.1664 45.7959 55.6826 46.0037C56.06 46.3915 56.1513 46.9641 56.3785 47.4465C56.4905 47.6844 56.6477 47.9534 56.8983 48.0363C56.991 48.067 57.0996 48.0696 57.1728 48.1443C57.2634 48.2367 57.2849 48.3401 57.4006 48.4195C57.8622 48.7367 58.5832 48.7122 58.9924 48.2984C59.3624 47.9241 59.2661 47.3318 58.9571 46.9523C59.449 46.7497 60.3452 46.4891 60.1497 45.7318C61.2155 45.6618 63.8034 43.9535 62.3729 42.7052C63.1579 42.2668 63.8792 41.1952 63.3749 40.2505C62.9866 39.5231 62.0835 39.198 61.3426 39.1594Z" fill="#CBAC4F"/>
<path fill-rule="evenodd" clip-rule="evenodd" d="M71.1846 93.5865H48.8023L45.8695 129.089H79.1875L71.1846 93.5865Z" fill="#C5CFD6"/>
<path fill-rule="evenodd" clip-rule="evenodd" d="M71.1846 93.5865H64.3008L60.1807 129.089H79.1875L71.1846 93.5865Z" fill="black" fill-opacity="0.1"/>
<path fill-rule="evenodd" clip-rule="evenodd" d="M23.2848 87.5042C20.8984 86.0881 16.8947 87.9075 16.8974 89.9328C16.9056 95.9924 22.5016 124.551 22.7938 126.357C23.0859 128.162 26.2158 128.639 26.3981 126.363C26.6881 122.741 27.2269 110.202 26.6878 104.398C26.4653 102.003 26.2256 99.7213 25.9897 97.6858C28.9261 102.926 33.4674 110.429 39.6136 120.194L42.9502 118.688C40.3301 110.157 38.1816 104.134 36.5048 100.62C33.6337 94.6029 30.9416 89.4498 29.8086 87.6347C28.0263 84.7796 24.924 85.7758 23.2848 87.5042Z" fill="#B28B67"/>
<path fill-rule="evenodd" clip-rule="evenodd" d="M42.7118 113.95L31.2598 87.1409C28.5163 82.7797 20.8244 88.0284 21.7599 90.5579C23.884 96.3006 34.6865 114.892 35.3193 116.603L42.7118 113.95Z" fill="#1F28CF"/>
<path fill-rule="evenodd" clip-rule="evenodd" d="M43.3375 117.002C44.0527 117.586 44.5182 118.062 44.734 118.431C44.9966 118.88 45.3043 119.577 45.6574 120.524C45.133 120.823 40.4206 123.508 31.5201 128.58C30.4474 127.584 30.2786 126.812 31.0139 126.265C31.7492 125.718 32.3559 125.256 32.8341 124.88L37.7037 118.227C37.7974 118.099 37.9786 118.071 38.1084 118.165C38.1106 118.166 38.1128 118.168 38.115 118.17L39.1324 118.946C40.0637 118.868 40.7584 118.699 41.2165 118.438C41.5887 118.225 42.0154 117.783 42.4966 117.111L42.4966 117.111C42.6813 116.853 43.043 116.793 43.3046 116.977C43.3159 116.985 43.3268 116.994 43.3375 117.002Z" fill="#E4E4E4"/>
<path fill-rule="evenodd" clip-rule="evenodd" d="M27.131 124.909C27.4551 125.765 27.6172 126.404 27.6172 126.829C27.6172 127.345 27.5302 128.099 27.3561 129.089C26.75 129.089 21.3031 129.089 11.0152 129.089C10.5906 127.702 10.8357 126.953 11.7506 126.842C12.6655 126.732 13.4255 126.632 14.0307 126.543L21.6257 123.196C21.7719 123.132 21.9432 123.197 22.0083 123.341C22.0094 123.344 22.0105 123.346 22.0116 123.349L22.4998 124.519C23.3467 124.91 24.035 125.105 24.5645 125.105C24.9947 125.105 25.5888 124.933 26.3469 124.59L26.3469 124.59C26.6378 124.458 26.9818 124.584 27.1151 124.872C27.1209 124.884 27.1262 124.897 27.131 124.909Z" fill="#E4E4E4"/>
<path fill-rule="evenodd" clip-rule="evenodd" d="M16.0949 91.9927C16.0949 99.5991 19.7503 117.342 19.7526 119.017L27.6173 119.023C26.4661 103.191 26.0579 95.1899 26.3927 95.0193C26.8948 94.7635 46.9777 97.0008 53.0008 97.0008C61.6863 97.0008 65.2793 91.5882 65.5708 81.5615H48.3653C44.8621 81.932 26.5891 85.5742 19.8028 86.8263C16.8975 87.3624 16.0949 89.8973 16.0949 91.9927Z" fill="#2B44FF"/>
<path fill-rule="evenodd" clip-rule="evenodd" d="M45.6846 63.7244L35.6284 58.2815C33.9561 56.3191 32.3084 54.795 30.6854 53.7092C30.1895 53.5046 29.3222 53.3807 30.1332 54.8034C30.9443 56.226 31.7327 57.7584 31.3195 58.1967C30.9063 58.635 29.8759 58.0227 29.3829 58.751C29.0543 59.2364 30.8146 60.0034 34.6639 61.0517L41.971 67.6633L45.6846 63.7244ZM29.9347 68.3167L25.5175 65.9187C24.8977 63.588 24.1568 62.4154 23.2948 62.4008C22.6326 62.0963 23.7858 65.0413 22.5305 64.7859C21.2752 64.5305 18.2113 62.2787 17.6834 62.7359C16.9024 63.4123 17.5988 65.4893 18.4193 66.5225C19.9529 68.4535 21.2226 69.1139 24.361 69.9786C26.0018 70.4307 27.7759 71.337 29.6832 72.6974L29.9347 68.3167Z" fill="#997659"/>
<path fill-rule="evenodd" clip-rule="evenodd" d="M50.5821 62.5119C47.0598 62.4752 42.3628 61.74 37.351 58.5962L35.3828 62.9338C38.8398 66.3241 43.7006 69.1098 47.9509 68.9918C51.3003 68.8988 53.0121 64.8951 50.5821 62.5119Z" fill="#2026A2"/>
<path fill-rule="evenodd" clip-rule="evenodd" d="M45.8392 69.4681C42.0998 70.3897 35.8291 69.3029 27.027 66.2077C24.8438 70.6713 23.8345 73.8535 23.9992 75.7543C31.5501 79.6521 38.0218 81.39 43.3536 81.5047C43.1842 84.6311 43.5693 87.6061 44.8629 90.3243C47.5223 95.9126 63.0948 90.7372 68.3307 91.7559C71.6096 81.2326 65.2697 76.956 65.2646 70.2226C65.2591 62.8489 59.2677 51.4989 58.3862 51.4989H50.3474C49.9038 57.1303 47.6713 63.3367 45.8392 69.4681Z" fill="#1F28CF"/>
</svg>
