<svg width="90" height="137" viewBox="0 0 90 137" fill="none" xmlns="http://www.w3.org/2000/svg">
<path d="M58.8455 22.2495L57.4816 18.5367L56.789 15.4125L59.9756 14.7061L60.6682 17.8302L61.0012 21.7716L58.8455 22.2495ZM61.8913 25.4911C61.6482 25.8728 61.3027 26.1132 60.8549 26.2125C60.4071 26.3118 59.9872 26.241 59.5951 26.0002C59.2134 25.757 58.9718 25.4063 58.8702 24.9481C58.7709 24.5003 58.8429 24.0856 59.086 23.7039C59.3373 23.3095 59.6868 23.0627 60.1346 22.9634C60.5824 22.8641 60.9983 22.9413 61.3823 23.1948C61.7744 23.4357 62.0201 23.78 62.1193 24.2278C62.2209 24.686 62.1449 25.1071 61.8913 25.4911Z" fill="#EB5757"/>
<path d="M74.2839 22.0729C74.4081 21.6536 74.6424 21.2947 74.9866 20.9962C75.3442 20.6905 75.6995 20.4675 76.0525 20.3274C76.4085 20.177 76.7451 19.9985 77.0621 19.7921C77.3924 19.5784 77.5954 19.3437 77.6711 19.088C77.8166 18.5971 77.5875 18.2623 76.9841 18.0836C76.3603 17.8988 75.7497 18.1573 75.1524 18.8593L73.2159 16.8339C73.7988 16.1054 74.5016 15.6294 75.3243 15.4059C76.1572 15.1854 77.0083 15.2038 77.8777 15.4614C78.8595 15.7522 79.6112 16.2752 80.1329 17.0305C80.6576 17.7755 80.7805 18.6185 80.5018 19.5594C80.3746 19.989 80.1695 20.3621 79.8866 20.6788C79.6169 20.9883 79.3281 21.2309 79.0202 21.4067C78.7122 21.5824 78.4088 21.7429 78.11 21.888C77.8142 22.0229 77.549 22.1668 77.3146 22.3199C77.0903 22.4759 76.9494 22.6511 76.8919 22.8455L74.2839 22.0729ZM75.6217 26.4574C75.224 26.6734 74.8053 26.7162 74.3655 26.586C73.9257 26.4557 73.5927 26.1902 73.3666 25.7894C73.1506 25.3917 73.1093 24.9679 73.2426 24.5179C73.3729 24.0781 73.6369 23.7502 74.0346 23.5343C74.4455 23.3112 74.8709 23.2647 75.3107 23.395C75.7505 23.5253 76.0768 23.7944 76.2897 24.2023C76.5159 24.603 76.5638 25.0233 76.4336 25.4631C76.3003 25.9131 76.0296 26.2445 75.6217 26.4574Z" fill="#418DD9"/>
<path d="M34.7387 94.8839L42.3889 91.7945L48.2312 76.533L56.0194 80.5458C56.0194 80.5458 55.2686 82.0517 53.6592 85.784C53.0335 87.2208 50.9754 91.2379 50.1383 93.1925C49.3636 94.9997 48.0876 96.5472 46.4613 97.6521C44.8349 98.757 42.9261 99.3731 40.9607 99.4275L33.7808 99.613L34.7387 94.8839Z" fill="#FFBF9D"/>
<path d="M30.9375 91.9326L29.7984 90.7158C29.5771 90.5707 29.3165 90.4969 29.0519 90.5044L25.393 90.6166C25.0514 90.6496 24.7216 90.759 24.4281 90.9367C24.1345 91.1145 23.8847 91.3561 23.6973 91.6435L22.364 93.9088C22.364 93.9088 21.4708 95.4578 21.583 95.8375C21.6329 95.9951 21.7395 96.1287 21.8822 96.2124C22.0248 96.296 22.1934 96.3239 22.3553 96.2906C22.3553 96.2906 22.4848 97.0068 22.7221 97.1535C22.8595 97.2227 23.0094 97.2633 23.1629 97.273C23.3165 97.2826 23.4703 97.2611 23.6153 97.2096C23.6782 97.3455 23.7806 97.4594 23.9091 97.5363C24.0376 97.6133 24.1863 97.6498 24.3358 97.6411C24.4 97.6351 24.4635 97.6236 24.5257 97.6066C24.9572 97.4728 25.1557 96.6314 25.1557 96.6314L27.011 96.2906C27.011 96.2906 29.6776 98.0726 30.6182 99.2376C31.5589 100.403 34.0183 99.5137 34.0183 99.5137L34.9374 95.1126L30.9375 91.9326Z" fill="#FFBF9D"/>
<path d="M28.2407 92.4547C27.9804 92.5353 27.7104 92.5803 27.4381 92.5885C26.9333 92.6446 26.2213 92.6661 25.4145 92.7697L25.5008 92.705C25.3621 93.0029 25.2035 93.2912 25.0261 93.5679C24.5389 94.3409 23.9463 95.0423 23.2657 95.652C22.9983 95.9206 22.6876 96.1423 22.3466 96.3078C22.3466 96.2776 22.6702 96.0187 23.1535 95.5312C23.7881 94.9004 24.351 94.2015 24.832 93.4471C25.0089 93.158 25.1685 92.8732 25.3023 92.5842L25.3282 92.5281H25.3886C26.2127 92.4374 26.9246 92.4461 27.4295 92.4288C27.7 92.4093 27.9719 92.418 28.2407 92.4547Z" fill="#FF9A6C"/>
<path d="M28.3226 94.2022C28.1067 94.3076 27.8721 94.3691 27.6323 94.3834C27.0363 94.4658 26.4307 94.4454 25.8416 94.323L25.9754 94.2497C25.8978 94.4756 25.8085 94.6974 25.7079 94.9141C25.3742 95.6026 24.9062 96.2173 24.3314 96.7221C24.107 96.9445 23.8399 97.1192 23.5461 97.2355C23.7591 97.0123 23.9838 96.8006 24.2193 96.6012C24.7512 96.0838 25.1892 95.4779 25.5137 94.8106C25.6135 94.6044 25.7014 94.3926 25.7769 94.1763L25.8114 94.0814H25.9063C26.7027 94.2303 27.5155 94.271 28.3226 94.2022Z" fill="#FF9A6C"/>
<path d="M32.974 95.104L29.7077 93.5852C29.2694 93.3412 28.7838 93.194 28.2838 93.1537C27.749 93.2006 27.2329 93.3736 26.778 93.6585L25.0175 94.5646C24.9226 94.6164 24.819 94.6768 24.7888 94.7761C24.7586 94.8753 24.8406 95.0479 24.9398 95.1471C25.3943 95.5771 25.989 95.8279 26.614 95.8533C27.239 95.8786 27.8521 95.6769 28.3399 95.2852C28.5783 96.0629 28.9506 96.793 29.4402 97.4426C29.6905 97.7683 30.0206 98.0239 30.3985 98.1849C30.7763 98.3459 31.1893 98.4067 31.5976 98.3617" fill="#FFBF9D"/>
<path d="M31.5889 98.4048C31.5618 98.4182 31.5326 98.427 31.5026 98.4307C31.4151 98.4524 31.3253 98.464 31.2351 98.4653C30.8923 98.4665 30.5545 98.3835 30.2513 98.2236C29.7817 97.978 29.3834 97.6154 29.095 97.1708C28.7369 96.5998 28.4472 95.9887 28.232 95.35L28.396 95.3888C28.1339 95.6089 27.8308 95.7748 27.5042 95.877C27.1775 95.9792 26.8339 96.0157 26.4931 95.9842C26.1226 95.9589 25.7613 95.8575 25.4317 95.6865C25.2629 95.5972 25.1051 95.4886 24.9614 95.3629C24.8835 95.2986 24.8126 95.2263 24.7499 95.1472C24.7093 95.0979 24.68 95.0402 24.6644 94.9783C24.6487 94.9163 24.647 94.8517 24.6593 94.789C24.6734 94.7376 24.6978 94.6896 24.7313 94.648C24.7647 94.6064 24.8063 94.5722 24.8535 94.5474C24.9312 94.4999 24.9959 94.4697 25.0649 94.4309L25.4705 94.2238L26.2688 93.7923C26.7646 93.5019 27.2933 93.2716 27.8437 93.1062C28.372 93.0111 28.917 93.0946 29.3927 93.3436C29.8242 93.542 30.2556 93.7405 30.6008 93.9174L32.3268 94.7804C32.5436 94.8781 32.7528 94.992 32.9524 95.1213C32.7241 95.0536 32.5018 94.967 32.2879 94.8624L30.5189 94.0814L29.3021 93.5377C28.8635 93.3129 28.3621 93.2415 27.8782 93.3349C27.3473 93.5009 26.8376 93.7283 26.3594 94.0124L25.5654 94.4438L25.1598 94.6553C25.0218 94.7243 24.8751 94.7933 24.8664 94.8624C24.8578 94.9314 24.9657 95.0997 25.0994 95.2076C25.2312 95.3221 25.376 95.4205 25.5309 95.501C25.8327 95.6573 26.1629 95.7512 26.5018 95.7771C27.1322 95.8385 27.7614 95.6494 28.2536 95.2507L28.3658 95.1558L28.4132 95.2939C28.6143 95.9218 28.885 96.5253 29.2201 97.0931C29.4842 97.5238 29.8521 97.8813 30.2902 98.133C30.6883 98.3457 31.1389 98.44 31.5889 98.4048Z" fill="#FF9A6C"/>
<path d="M75.4493 52.3528C75.4795 49.9019 75.8808 47.4597 75.7686 45.0176C75.6564 42.5754 75.0308 40.0167 73.3221 38.2606C71.6134 36.5044 68.6319 35.8399 66.6471 37.2423L66.2156 39.3306C67.0009 48.7801 66.8973 58.3806 67.6826 67.83C67.7862 69.0727 68.7915 70.1989 69.3568 71.3078C69.922 72.4167 71.0568 73.3357 72.2995 73.2581C73.9262 73.1588 74.9919 71.5106 75.4968 69.9572C77.3521 64.3436 75.3759 58.277 75.4493 52.3528Z" fill="#263238"/>
<path d="M69.5552 39.6456C69.2279 39.023 68.8074 38.4541 68.3082 37.9585C68.0564 37.7121 67.7521 37.5258 67.418 37.4137C67.084 37.3016 66.7289 37.2666 66.3794 37.3113C66.2148 37.3317 66.0582 37.394 65.9245 37.4922C65.7908 37.5904 65.6845 37.7213 65.6157 37.8722C65.5079 38.1829 65.7409 38.6014 66.0688 38.5712L66.1378 38.6316C66.8713 39.2817 67.6178 39.916 68.3772 40.5345C68.5584 40.7035 68.771 40.8354 69.0029 40.9228C69.1194 40.9653 69.2456 40.9741 69.367 40.9481C69.4883 40.9222 69.5999 40.8625 69.6889 40.7761C69.9607 40.474 69.7623 39.9951 69.5552 39.6456Z" fill="#FF725E"/>
<path d="M70.9402 42.0533C68.498 39.0674 65.2188 37.3458 61.3613 37.307C59.2039 37.2681 58.2849 37.7385 56.7186 38.144C55.1502 38.5227 53.764 39.4387 52.8007 40.7329C51.6918 42.3079 50.7598 44.0726 50.5484 45.9927C50.2719 47.9545 50.178 49.9378 50.2679 51.917C50.3585 53.9058 50.9976 55.8308 52.1147 57.4788L57.1371 58.3417C59.9115 58.4366 62.7248 58.5273 65.4302 57.9102C68.1356 57.2932 70.759 55.8219 72.2045 53.453C74.2152 50.1393 73.3781 45.0348 70.9402 42.0533Z" fill="#263238"/>
<path d="M66.4742 42.0188L59.7776 39.3565L58.0258 39.5593C54.0907 39.5593 51.3723 43.9173 51.3464 47.1016C51.3206 50.6484 51.4241 54.9718 51.985 57.5823C53.1198 62.8335 57.5943 63.2692 57.5943 63.2692C57.5943 63.2692 57.5037 66.0696 57.4692 67.83L67.7255 67.0922L68.239 43.818C68.2234 43.3517 68.0335 42.9081 67.7067 42.5749C67.38 42.2418 66.9402 42.0433 66.4742 42.0188Z" fill="#FFBF9D"/>
<path d="M59.8596 56.3526C59.8182 56.0842 59.6801 55.8402 59.4713 55.6665C59.2813 55.5029 59.0429 55.4062 58.7926 55.3914C58.5423 55.3766 58.2941 55.4445 58.0862 55.5845C57.8704 55.7509 57.7027 55.9716 57.6004 56.2241C57.498 56.4766 57.4647 56.7517 57.5037 57.0214C57.619 57.1832 57.7676 57.3186 57.9395 57.4183C58.1114 57.518 58.3027 57.5798 58.5004 57.5996C58.5622 57.6039 58.6242 57.6039 58.686 57.5996C59.0061 57.6062 59.316 57.4869 59.5489 57.2673C59.6661 57.148 59.7549 57.0038 59.8087 56.8454C59.8625 56.687 59.8799 56.5186 59.8596 56.3526Z" fill="#FF9A6C"/>
<path d="M53.12 51.5847C53.1267 51.7621 53.2029 51.9298 53.332 52.0516C53.4611 52.1735 53.6329 52.2398 53.8104 52.2362C53.8972 52.238 53.9835 52.2224 54.0643 52.1905C54.1451 52.1586 54.2188 52.1109 54.281 52.0503C54.3432 51.9897 54.3928 51.9173 54.4268 51.8374C54.4608 51.7575 54.4786 51.6716 54.4792 51.5847C54.4702 51.4073 54.3929 51.2403 54.2633 51.1187C54.1337 50.9972 53.9621 50.9307 53.7845 50.9332C53.6978 50.9315 53.6117 50.947 53.5312 50.979C53.4506 51.011 53.3773 51.0587 53.3154 51.1194C53.2535 51.18 53.2043 51.2524 53.1708 51.3323C53.1372 51.4122 53.12 51.498 53.12 51.5847Z" fill="#263238"/>
<path d="M52.5461 48.875C52.6324 48.957 53.1286 48.5514 53.8405 48.5126C54.5525 48.4737 55.135 48.8103 55.204 48.7154C55.273 48.6205 55.1436 48.5169 54.902 48.3616C54.5735 48.1598 54.1906 48.0649 53.806 48.0897C53.4261 48.1085 53.0619 48.2475 52.7661 48.4867C52.5676 48.6722 52.4986 48.8362 52.5461 48.875Z" fill="#263238"/>
<path d="M57.2406 54.6094C56.8491 54.5066 56.4458 54.4558 56.0411 54.4584C55.8556 54.4584 55.6743 54.4239 55.6355 54.2944C55.6121 54.1036 55.6451 53.9101 55.7304 53.7378C55.8814 53.2761 56.0411 52.7929 56.2051 52.2837C56.8609 50.2212 57.3269 48.5255 57.2406 48.4996C57.1543 48.4737 56.5589 50.1263 55.903 52.1931L55.4715 53.6515C55.3653 53.8829 55.3454 54.1446 55.4154 54.3894C55.4453 54.4536 55.4897 54.5101 55.5451 54.5543C55.6005 54.5984 55.6654 54.6291 55.7347 54.6439C55.8396 54.6664 55.9469 54.6751 56.054 54.6698C56.4506 54.6965 56.8488 54.6762 57.2406 54.6094Z" fill="#263238"/>
<path d="M57.5857 63.2649C60.0821 63.1661 62.5021 62.3759 64.5757 60.9824C64.5757 60.9824 62.8886 64.7579 57.5598 64.5551L57.5857 63.2649Z" fill="#FF9A6C"/>
<path d="M59.4196 54.9934C59.3031 54.9934 59.3419 55.7873 58.6947 56.3871C58.0475 56.9869 57.1974 56.948 57.1974 57.0602C57.1974 57.1724 57.3959 57.2026 57.7497 57.194C58.2164 57.1755 58.6613 56.992 59.0054 56.6762C59.3346 56.3745 59.5341 55.9569 59.562 55.5112C59.5706 55.1789 59.4757 54.9891 59.4196 54.9934Z" fill="#263238"/>
<path d="M52.7919 46.3163C52.9257 46.4846 53.478 46.3379 54.1338 46.3551C54.7897 46.3724 55.342 46.5148 55.48 46.3551C55.5405 46.2732 55.4585 46.1049 55.2212 45.9237C54.9003 45.7151 54.5251 45.6056 54.1425 45.6087C53.7597 45.5984 53.3822 45.6988 53.0551 45.8978C52.8178 46.0617 52.7358 46.23 52.7919 46.3163Z" fill="#263238"/>
<path d="M61.098 51.4035C61.1016 51.5807 61.036 51.7523 60.9152 51.882C60.7943 52.0117 60.6278 52.0892 60.4507 52.0982C60.3644 52.1064 60.2774 52.0974 60.1946 52.0716C60.1118 52.0458 60.035 52.0037 59.9687 51.9479C59.9024 51.892 59.8479 51.8235 59.8085 51.7463C59.769 51.6691 59.7453 51.5849 59.7388 51.4984C59.7351 51.3215 59.7999 51.1499 59.9198 51.0197C60.0396 50.8894 60.2051 50.8105 60.3817 50.7994C60.4686 50.7911 60.5562 50.8003 60.6395 50.8263C60.7228 50.8523 60.8001 50.8947 60.8668 50.9509C60.9335 51.0072 60.9883 51.0762 61.028 51.1539C61.0677 51.2316 61.0915 51.3165 61.098 51.4035Z" fill="#263238"/>
<path d="M62.4358 48.5902C62.3538 48.6808 61.8317 48.3098 61.0982 48.3227C60.3646 48.3356 59.8382 48.7154 59.7562 48.6247C59.6743 48.5341 59.7994 48.4263 60.0324 48.2494C60.3442 48.0246 60.7181 47.9024 61.1025 47.8999C61.4831 47.8914 61.8566 48.0048 62.1682 48.2235C62.3969 48.3917 62.4789 48.5514 62.4358 48.5902Z" fill="#263238"/>
<path d="M61.9955 46.2516C61.8574 46.4199 61.2879 46.2516 60.6105 46.2516C59.933 46.2516 59.3549 46.3854 59.2211 46.2128C59.1607 46.1308 59.2513 45.9625 59.4972 45.7813C59.8382 45.5816 60.2284 45.4814 60.6234 45.4922C61.0157 45.4877 61.4009 45.5971 61.7323 45.8072C61.9783 45.997 62.0602 46.1696 61.9955 46.2516Z" fill="#263238"/>
<path d="M67.3373 52.7152C67.3373 52.3225 67.7213 51.369 68.1096 51.287C69.1409 51.0669 71.0178 51.0454 71.1818 53.686C71.4062 57.2975 67.7299 56.7754 67.7299 56.6719C67.7299 56.5683 67.402 54.0787 67.3373 52.7152Z" fill="#FFBF9D"/>
<path d="M68.6317 55.2911C68.6317 55.2911 68.6964 55.3343 68.8042 55.3731C68.9564 55.435 69.1267 55.435 69.2789 55.3731C69.65 55.2091 69.9347 54.5835 69.9132 53.932C69.9026 53.622 69.823 53.3184 69.6802 53.0431C69.6397 52.932 69.5724 52.8325 69.4844 52.7535C69.3963 52.6745 69.2902 52.6183 69.1753 52.5901C69.1024 52.5756 69.0267 52.5872 68.9613 52.6226C68.8959 52.6581 68.8449 52.7152 68.8172 52.7842C68.774 52.8878 68.8172 52.9611 68.7827 52.9654C68.7482 52.9698 68.7007 52.9093 68.7223 52.7583C68.7366 52.6678 68.7824 52.5853 68.8517 52.5253C68.8979 52.4844 68.9519 52.4533 69.0106 52.434C69.0692 52.4148 69.1311 52.4077 69.1926 52.4132C69.343 52.4313 69.486 52.4887 69.6071 52.5796C69.7283 52.6704 69.8234 52.7916 69.8829 52.9309C70.0553 53.2342 70.1515 53.5747 70.1634 53.9233C70.185 54.6525 69.8527 55.3559 69.3436 55.5371C69.2484 55.5716 69.1468 55.5844 69.046 55.5747C68.9453 55.565 68.8479 55.533 68.7611 55.481C68.6317 55.3817 68.6317 55.2998 68.6317 55.2911Z" fill="#FF9A6C"/>
<path d="M68.2476 51.2956L67.3372 52.2363C63.3762 48.4435 55.6354 38.9509 56.0712 39.5162C57.8766 38.8451 59.8219 38.6389 61.7279 38.9164C64.6749 39.4169 70.2583 40.8926 70.172 44.366C70.0857 47.8395 68.2476 51.2956 68.2476 51.2956Z" fill="#263238"/>
<path d="M73.4945 50.5103C73.4828 50.4396 73.464 50.3702 73.4384 50.3032C73.3726 50.1067 73.2904 49.9162 73.1924 49.7337C72.8185 49.0652 72.3031 48.4865 71.6822 48.0379C70.7669 47.3805 69.7452 46.8857 68.6619 46.5752C67.4537 46.1826 66.0946 45.8762 64.757 45.2808C63.4955 44.7552 62.2995 44.0848 61.1929 43.283C60.2879 42.6275 59.4444 41.891 58.6731 41.0824C58.1556 40.5355 57.6701 39.9593 57.219 39.3565L56.8565 38.856C56.8161 38.7955 56.7699 38.7392 56.7184 38.6877C56.7487 38.7541 56.7848 38.8176 56.8263 38.8776C56.8997 38.9984 57.0075 39.1753 57.1586 39.3953C57.5905 40.0197 58.0648 40.6137 58.5781 41.173C60.2813 43.0248 62.3658 44.4851 64.6879 45.4533C65.9732 45.9405 67.2823 46.3624 68.6101 46.7176C69.6887 47.0116 70.7098 47.4857 71.6305 48.1199C72.2447 48.5515 72.7633 49.1053 73.1536 49.7466C73.378 50.2169 73.4729 50.5103 73.4945 50.5103Z" fill="#455A64"/>
<path d="M72.4417 51.0669C72.4535 50.7968 72.4064 50.5274 72.3037 50.2773C72.0312 49.5873 71.5577 48.995 70.9445 48.5773C70.0269 47.9861 68.9997 47.5856 67.9241 47.3993C66.6371 47.1414 65.3825 46.742 64.1832 46.2084C62.9889 45.6635 61.8671 44.9722 60.8435 44.1503C60.0108 43.4761 59.245 42.7233 58.5567 41.9023C58.0878 41.3454 57.6554 40.7588 57.2622 40.1461L56.9559 39.6413C56.9242 39.5806 56.8851 39.524 56.8394 39.473C56.8634 39.537 56.8922 39.599 56.9257 39.6586L57.2018 40.185C57.569 40.8138 57.9815 41.4151 58.4358 41.9842C59.116 42.8269 59.8808 43.5976 60.7184 44.284C61.748 45.1223 62.8804 45.8256 64.0883 46.3767C65.2982 46.9166 66.5666 47.3148 67.868 47.5633C68.9242 47.7393 69.9356 48.1204 70.8453 48.6852C71.4468 49.0811 71.9205 49.6432 72.2087 50.3032C72.3097 50.5501 72.3877 50.8058 72.4417 51.0669Z" fill="#455A64"/>
<path d="M68.1269 57.414C68.1269 57.3881 68.4332 57.3493 68.9683 57.2069C69.7184 56.9904 70.4091 56.6052 70.9876 56.0808C71.8351 55.2876 72.4789 54.3019 72.8646 53.2071C73.3574 51.8728 73.6228 50.4654 73.6499 49.0433C73.6662 48.3085 73.6069 47.574 73.473 46.8514C73.1109 45.0338 72.2572 43.3503 71.0049 41.9842C70.2685 41.2023 69.4562 40.4955 68.5799 39.8743C68.5799 39.8743 68.6533 39.9002 68.7827 39.9778C68.9122 40.0555 69.0977 40.1591 69.3264 40.323C69.9818 40.7727 70.5866 41.292 71.13 41.8721C71.9438 42.7315 72.6023 43.7257 73.076 44.8105C73.3506 45.4538 73.5602 46.1231 73.7016 46.8082C73.8404 47.5463 73.9026 48.2967 73.8872 49.0476C73.8613 50.4964 73.5854 51.9298 73.0717 53.2848C72.6633 54.4051 71.9862 55.4082 71.0998 56.2059C70.4948 56.7321 69.7729 57.1064 68.9942 57.2975C68.7823 57.3456 68.5675 57.3802 68.3513 57.4011C68.2769 57.4112 68.2019 57.4156 68.1269 57.414Z" fill="#455A64"/>
<path d="M72.7223 101.818L51.3725 104.92C43.3513 107.19 34.9029 107.854 26.0704 107.078L58.2029 122.067L71.1042 122.266C71.1042 122.266 75.0307 122.266 75.7168 118.84C76.4028 115.414 77.1665 104.981 77.1665 104.981C77.1665 104.981 74.6165 102.771 72.7223 101.818Z" fill="#263238"/>
<g opacity="0.3">
<path d="M72.6575 110.806C73.0105 112.944 73.1378 115.113 73.0372 117.278C73.693 116.558 74.176 115.698 74.4497 114.763C74.7233 113.829 74.7803 112.844 74.6164 111.884C74.4309 110.832 73.9907 109.671 74.543 108.752C74.9141 108.135 75.8936 107.427 75.7512 106.724C75.7512 106.724 74.8882 106.724 74.1159 106.694C73.4902 106.668 72.1915 106.629 72.1915 106.629C72.7503 107.971 72.8711 109.455 72.5367 110.87" fill="black"/>
</g>
<path d="M57.5038 66.9498L67.8766 65.8279L69.7751 67.5539L62.3709 71.9118L59.1046 73.6032L55.8771 72.6238L54.8545 70.6994L57.5038 66.9498Z" fill="#FFBF9D"/>
<path d="M43.5194 79.5793C43.5194 79.5793 46.7728 73.34 47.5753 71.9766C48.9475 69.6509 51.5105 68.3348 51.5105 68.3348L57.5037 66.9498C57.5037 66.9498 56.8824 69.9702 60.6104 70.16C65.3567 70.4232 68.3037 65.8754 68.3037 65.8754C68.3037 65.8754 73.7145 66.432 75.2074 67.0577C76.7004 67.6833 80.9289 69.4567 81.5502 75.0746L83 84.2522L71.5657 85.1152L71.7211 97.3348L66.8626 101.309C66.8626 101.309 52.9128 106.111 52.0196 106.426C51.5881 106.577 51.7003 100.649 50.7036 95.5657L48.8223 90.9963C48.0608 89.1712 47.6101 87.2315 47.489 85.2576C47.4157 83.9631 47.4502 82.9707 47.4502 82.9707C47.4502 82.9707 44.5161 81.9654 43.5194 79.5793Z" fill="#455A64"/>
<path d="M52.5289 101.637L71.6997 95.885L71.5659 85.1238L81.326 84.3817C81.326 84.3817 80.5494 89.9564 80.4329 92.8128C80.2689 96.9248 78.2755 102.672 76.981 103.889C75.6866 105.106 52.0327 106.435 52.0327 106.435L52.5289 101.637Z" fill="#FFBF9D"/>
<path d="M41.6556 105.019C41.748 105.178 41.8949 105.297 42.0687 105.355C42.2426 105.413 42.4316 105.406 42.6005 105.334C43.032 105.162 42.9155 104.29 42.9155 104.29L44.9564 103.79C44.9564 103.79 47.774 105.317 48.8397 106.379C49.9055 107.44 52.2484 106.331 52.2484 106.331L52.736 101.857L48.6671 98.7112C48.6671 98.7112 48.9174 98.901 48.6024 98.2797C48.2874 97.6583 47.1138 97.9949 47.1138 97.9949C46.9067 97.6886 46.1171 97.6368 46.1171 97.6368L42.8076 98.2797C42.4718 98.345 42.1549 98.4847 41.8801 98.6886C41.6053 98.8924 41.3797 99.1552 41.2198 99.4576L39.9814 101.801C39.9814 101.801 39.3601 103.466 39.5111 103.833C39.5762 103.985 39.6948 104.107 39.8444 104.177C39.9939 104.247 40.164 104.26 40.3223 104.213C40.3223 104.213 40.5682 105.257 40.8487 105.27C41.132 105.235 41.406 105.145 41.6556 105.006V105.019Z" fill="#FFBF9D"/>
<path d="M48.5116 101.309C48.5116 101.343 48.0801 101.335 47.3552 101.421C46.4321 101.539 45.5293 101.781 44.6714 102.141C44.2003 102.343 43.7459 102.581 43.3122 102.853C42.9282 103.108 42.5226 103.328 42.4147 103.634C42.3914 103.7 42.3856 103.771 42.3977 103.84C42.4098 103.909 42.4394 103.973 42.4838 104.027C42.552 104.117 42.645 104.184 42.7513 104.221C42.9325 104.277 43.0404 104.221 43.049 104.221C43.0576 104.221 42.9498 104.32 42.7297 104.282C42.5994 104.253 42.4817 104.183 42.3932 104.083C42.3296 104.015 42.2851 103.931 42.2639 103.84C42.2427 103.749 42.2456 103.655 42.2723 103.565C42.346 103.364 42.4782 103.19 42.652 103.065C42.8246 102.931 43.0059 102.797 43.2087 102.664C44.4448 101.854 45.8649 101.369 47.3379 101.253C47.7296 101.208 48.1259 101.227 48.5116 101.309Z" fill="#FF9A6C"/>
<path d="M48.9129 103.419C48.9129 103.479 47.5495 103.531 45.8926 103.755C44.2357 103.98 42.9067 104.29 42.8722 104.23C43.146 104.098 43.4362 104.004 43.7352 103.949C44.4344 103.774 45.1432 103.638 45.858 103.544C46.5734 103.447 47.2937 103.391 48.0155 103.375C48.3152 103.349 48.6172 103.363 48.9129 103.419Z" fill="#FF9A6C"/>
<path d="M41.6685 104.933C41.6335 104.819 41.6103 104.702 41.5994 104.584C41.555 104.259 41.529 103.932 41.5218 103.604C41.518 103.376 41.5324 103.148 41.5649 102.922C41.6049 102.657 41.6973 102.401 41.8368 102.172C42.1238 101.64 42.514 101.17 42.9845 100.791C43.4499 100.41 43.9671 100.098 44.5206 99.8633C44.9793 99.693 45.4577 99.5813 45.9445 99.531C46.3759 99.4835 46.6866 99.4706 46.9196 99.4577C47.0383 99.4402 47.159 99.4402 47.2777 99.4577C46.8509 99.5553 46.4187 99.6273 45.9833 99.6734C45.5138 99.7423 45.0535 99.8639 44.6112 100.036C44.0803 100.273 43.5839 100.581 43.1355 100.951C42.6883 101.31 42.311 101.749 42.0223 102.245C41.792 102.654 41.6771 103.118 41.69 103.587C41.6555 104.42 41.7159 104.933 41.6685 104.933Z" fill="#FF9A6C"/>
<path d="M46.0221 98.5084C46.0221 98.5429 45.5259 98.5947 44.7276 98.7457C43.9294 98.8967 42.7428 99.0736 42.1387 100.187C41.5222 101.031 41.0242 101.956 40.6587 102.935C40.5448 103.352 40.4711 103.778 40.4387 104.208C40.3984 104.095 40.3822 103.974 40.3912 103.854C40.3834 103.529 40.4241 103.205 40.512 102.892C40.8404 101.878 41.3299 100.924 41.9618 100.066C42.1297 99.8061 42.3314 99.5696 42.5616 99.3627C42.7836 99.1723 43.0399 99.0258 43.3167 98.9312C43.7704 98.7739 44.2387 98.6626 44.7147 98.599C45.145 98.5143 45.5842 98.4838 46.0221 98.5084Z" fill="#FF9A6C"/>
<path d="M48.0372 105.74C47.9625 105.701 47.8917 105.655 47.8258 105.602L47.2346 105.201C46.4897 104.71 45.7176 104.262 44.9219 103.859H44.9694L42.9328 104.372L42.9975 104.277C43.0169 104.446 43.0169 104.617 42.9975 104.786C42.9847 104.973 42.9172 105.152 42.8033 105.3C42.7326 105.374 42.6407 105.426 42.5401 105.447C42.4474 105.479 42.349 105.492 42.251 105.485C42.0484 105.471 41.8574 105.385 41.7117 105.244C41.6763 105.207 41.6432 105.168 41.6124 105.127V105.097L41.7332 105.132L41.6685 105.162C41.5846 105.206 41.4982 105.245 41.4096 105.278C41.3194 105.314 41.2272 105.344 41.1335 105.369C41.0841 105.384 41.0336 105.394 40.9825 105.399C40.917 105.41 40.8498 105.402 40.7883 105.378C40.6898 105.315 40.6117 105.225 40.5639 105.119C40.5161 105.03 40.4743 104.937 40.4388 104.843C40.3663 104.656 40.3071 104.464 40.2619 104.269L40.387 104.342C40.2495 104.384 40.103 104.388 39.9636 104.352C39.8243 104.316 39.6976 104.242 39.5974 104.139C39.4932 104.029 39.432 103.885 39.4248 103.734C39.4245 103.597 39.4375 103.462 39.4636 103.328C39.5791 102.809 39.7319 102.298 39.921 101.801L40.5812 100.549L41.0127 99.7597C41.1406 99.4867 41.2968 99.2278 41.4787 98.9873C41.6764 98.7561 41.9185 98.5669 42.1906 98.4307C42.456 98.3088 42.7382 98.2273 43.0277 98.1891L46.143 97.5893H46.1689C46.3604 97.6038 46.5499 97.6385 46.7341 97.6929C46.9297 97.7361 47.1065 97.8404 47.239 97.9906L47.1181 97.9647C47.2825 97.8737 47.4665 97.8239 47.6543 97.8194C47.8421 97.8149 48.0283 97.8558 48.1968 97.9388C48.4883 98.1229 48.7006 98.4091 48.7923 98.7414L48.7621 98.7026L51.5667 100.86L52.3218 101.455C52.4128 101.521 52.4979 101.595 52.5764 101.675C52.4773 101.624 52.3833 101.564 52.2959 101.494L51.5149 100.929L48.6672 98.832H48.6456V98.8018C48.5653 98.5127 48.3788 98.2646 48.1235 98.1071C47.9812 98.0388 47.8245 98.0058 47.6667 98.0111C47.509 98.0163 47.3548 98.0596 47.2174 98.1373L47.144 98.1718L47.0966 98.1114C46.9869 97.9977 46.8456 97.9196 46.691 97.887C46.5189 97.8394 46.3426 97.8091 46.1646 97.7964H46.1905L43.0751 98.4092C42.8032 98.4445 42.5383 98.5216 42.2899 98.6378C42.0449 98.7591 41.8276 98.9295 41.6513 99.1384C41.4813 99.3681 41.3367 99.6154 41.2198 99.8762L40.7883 100.666C40.5596 101.097 40.3568 101.529 40.1281 101.917C39.9501 102.404 39.806 102.903 39.6966 103.41C39.6718 103.528 39.6588 103.648 39.6578 103.768C39.6636 103.872 39.7065 103.97 39.7786 104.044C39.8528 104.119 39.9457 104.171 40.0475 104.197C40.1493 104.223 40.2562 104.221 40.3568 104.191L40.4604 104.165V104.264C40.5078 104.45 40.5639 104.64 40.6286 104.817C40.676 104.979 40.7619 105.127 40.8789 105.248C40.9071 105.257 40.937 105.257 40.9652 105.248L41.0903 105.222C41.1775 105.203 41.2627 105.175 41.3449 105.14C41.4269 105.11 41.5089 105.071 41.5909 105.032L41.6513 105.007L41.7764 105.041V105.063C41.7999 105.096 41.8259 105.128 41.8541 105.158C41.9345 105.243 42.0377 105.304 42.1516 105.333C42.2655 105.362 42.3853 105.358 42.497 105.321C42.5659 105.31 42.6293 105.276 42.6782 105.227C42.8303 104.966 42.8867 104.661 42.8378 104.364V104.286H42.9069L44.9521 103.803H44.978C45.7732 104.217 46.5387 104.685 47.2692 105.205C47.5237 105.391 47.7006 105.537 47.843 105.636C47.9101 105.666 47.975 105.701 48.0372 105.74Z" fill="#FF9A6C"/>
<path d="M38.0698 108.51C38.0698 108.51 24.5429 104.26 20.2971 102.901C12.9619 100.528 8.18972 102.927 6.67953 105.542C4.72061 108.937 9.41945 115.561 11.2317 117.084C16.595 121.593 25.7899 122.201 25.7899 122.201L58.85 122.141L49.215 109.032L38.0698 108.51Z" fill="#263238"/>
<path d="M40.0978 114.646C34.5888 115.287 29.007 114.527 23.8698 112.437C22.9933 112.04 22.0909 111.705 21.1687 111.431C20.2571 111.201 19.312 111.134 18.377 111.233C18.0059 111.242 17.6406 111.326 17.3026 111.48C16.9646 111.633 16.6608 111.853 16.4095 112.126C15.7493 112.989 16.0858 114.232 16.4526 115.259C16.8841 116.467 17.3156 117.701 18.1785 118.667C19.158 119.793 20.5819 120.441 22.0101 120.889C24.8018 121.752 27.7488 122.024 30.6742 122.136L40.7192 121.588L40.0978 114.646Z" fill="#E0E0E0"/>
<path d="M20.6984 111.436C20.7644 111.517 20.8156 111.609 20.8495 111.707C20.9661 111.965 21.0558 112.234 21.117 112.51C21.3339 113.428 21.2958 114.388 21.0068 115.286C20.7178 116.184 20.189 116.986 19.4774 117.606C19.2655 117.791 19.0373 117.957 18.7956 118.102C18.6187 118.201 18.5195 118.244 18.5108 118.231C18.5022 118.218 18.8733 117.981 19.3738 117.494C20.0305 116.866 20.52 116.084 20.7981 115.219C21.0761 114.354 21.1338 113.433 20.966 112.54C20.8451 111.85 20.6639 111.449 20.6984 111.436Z" fill="#263238"/>
<path d="M72.5972 107.682C71.8119 105.455 71.6824 102.185 66.8369 100.614C61.9913 99.0434 58.3324 102.055 55.8427 103.099C53.3531 104.144 39.7484 111.608 39.7484 111.608C39.7484 111.608 37.1854 116.178 37.9146 118.197C38.6438 120.216 41.9576 122.21 41.9576 122.21H57.176C61.1025 122.21 68.3945 122.076 68.3945 122.076C69.3708 120.476 70.2456 118.815 71.0136 117.105L71.1431 116.449C71.156 115.927 73.3781 109.908 72.5972 107.682Z" fill="#263238"/>
<path d="M64.166 119.241C64.1463 119.318 64.1077 119.389 64.0538 119.448C63.9063 119.619 63.7381 119.771 63.5533 119.901C62.8738 120.37 62.1514 120.773 61.3959 121.105C60.8798 121.346 60.3495 121.555 59.808 121.731C59.1812 121.928 58.5389 122.072 57.8879 122.162C56.4027 122.31 54.91 122.368 53.4178 122.335C50.255 122.387 47.377 122.507 45.3059 122.482C44.2661 122.482 43.4247 122.434 42.8465 122.374C42.6234 122.354 42.4016 122.322 42.182 122.279C42.1042 122.269 42.0276 122.252 41.9533 122.227C41.9533 122.205 42.2726 122.261 42.8508 122.292C43.429 122.322 44.2704 122.343 45.3059 122.335C47.3814 122.335 50.2464 122.175 53.4178 122.123C54.9024 122.156 56.3876 122.104 57.8664 121.968C58.5057 121.89 59.1378 121.76 59.7563 121.58C60.2943 121.414 60.8217 121.215 61.3355 120.984C62.0859 120.669 62.8077 120.289 63.4929 119.849C63.6793 119.725 63.8514 119.58 64.0064 119.418C64.1272 119.314 64.1531 119.237 64.166 119.241Z" fill="#263238"/>
<path d="M41.9575 122.21L41.7547 122.102C41.6253 122.028 41.4354 121.908 41.1895 121.748C40.4739 121.281 39.8036 120.748 39.1874 120.156C38.741 119.728 38.3601 119.236 38.0569 118.697C37.7471 118.023 37.6682 117.264 37.8326 116.54C38.2026 114.805 38.8232 113.134 39.675 111.578V111.556C42.169 110.184 45.0297 108.627 48.1536 106.948C49.7156 106.111 51.3423 105.244 53.0337 104.359C53.8966 103.928 54.7596 103.496 55.6226 103.065C56.4855 102.633 57.3701 102.202 58.2632 101.736C59.4972 101.06 60.8206 100.562 62.194 100.256C62.8687 100.121 63.5557 100.059 64.2436 100.07C64.9166 100.091 65.5852 100.186 66.237 100.355C67.5007 100.666 68.6872 101.233 69.7234 102.021C70.2052 102.42 70.6318 102.881 70.992 103.393C71.3231 103.897 71.5967 104.437 71.8074 105.002C72.0232 105.555 72.1742 106.111 72.3295 106.655C72.5075 107.183 72.6517 107.722 72.761 108.269C72.8288 109.313 72.7416 110.361 72.5021 111.38C72.308 112.35 72.0707 113.256 71.8247 114.098C71.7039 114.529 71.5831 114.931 71.4709 115.323C71.3587 115.716 71.2293 116.104 71.1689 116.449C71.1171 116.695 71.0783 116.881 71.0351 117.101C70.6195 118.434 70.0321 119.708 69.2876 120.889C69.0239 121.312 68.7126 121.703 68.3599 122.054L68.416 121.977C68.4635 121.921 68.5239 121.852 68.5972 121.757C68.8259 121.469 69.0391 121.169 69.2358 120.859C69.9546 119.67 70.5214 118.396 70.9229 117.066C71.1689 116.859 71.1214 116.657 71.048 116.411C71.1234 116.017 71.2214 115.628 71.3414 115.246L71.6909 114.024C71.924 113.162 72.157 112.273 72.3468 111.31C72.5766 110.308 72.658 109.277 72.5884 108.251C72.4749 107.716 72.3309 107.187 72.157 106.668C71.9973 106.124 71.842 105.572 71.6305 105.032C71.4246 104.48 71.1568 103.954 70.8323 103.462C70.4822 102.967 70.0672 102.521 69.5983 102.137C68.0465 100.974 66.1771 100.312 64.2393 100.239C63.5671 100.228 62.8958 100.29 62.2372 100.424C60.88 100.725 59.5724 101.218 58.3538 101.887C57.4909 102.318 56.6279 102.836 55.7002 103.22C54.7725 103.604 53.9743 104.062 53.1113 104.515C51.4242 105.378 49.7932 106.241 48.2313 107.104L39.7397 111.682L39.7699 111.647C38.9206 113.185 38.2972 114.837 37.9189 116.553C37.7486 117.253 37.817 117.989 38.113 118.646C38.4035 119.18 38.773 119.667 39.209 120.091C39.8141 120.688 40.4711 121.229 41.1722 121.709L41.7245 122.08C41.8799 122.162 41.9575 122.21 41.9575 122.21Z" fill="#263238"/>
<path d="M66.7245 116.562C66.7245 116.562 71.2593 117.105 70.8581 119.323C70.4568 121.541 68.9725 122.287 68.9725 122.287L56.6494 122.313C56.6494 122.313 64.0061 121.804 66.7245 116.562Z" fill="#E0E0E0"/>
<path d="M67.1645 115.487C67.1635 115.703 67.1165 115.916 67.0265 116.113C66.8595 116.609 66.6117 117.074 66.2929 117.489C65.8632 118.095 65.2621 118.557 64.567 118.818C65.1393 118.389 65.6643 117.9 66.1333 117.36C66.5289 116.766 66.8739 116.139 67.1645 115.487Z" fill="#263238"/>
<path d="M65.6113 116.354C65.6186 116.911 65.469 117.458 65.1798 117.934C64.9584 118.438 64.6196 118.882 64.1917 119.228C64.1443 119.189 64.5887 118.615 64.99 117.826C65.3912 117.036 65.5336 116.346 65.6113 116.354Z" fill="#263238"/>
<path d="M71.376 121.67C71.3415 121.67 71.6349 121.092 71.9887 120.139C72.9176 117.648 73.2242 114.969 72.8819 112.333C72.7481 111.328 72.5928 110.711 72.6273 110.702C72.6956 110.839 72.7449 110.984 72.774 111.134C72.8806 111.524 72.9656 111.92 73.0286 112.32C73.4604 114.979 73.1498 117.705 72.1311 120.199C71.9773 120.567 71.803 120.925 71.609 121.273C71.5473 121.414 71.4691 121.548 71.376 121.67Z" fill="#455A64"/>
<g opacity="0.3">
<path d="M68.813 115.366C68.7785 115.069 68.662 114.715 68.3815 114.654C68.0191 114.581 67.7731 114.995 67.6307 115.332C66.0429 118.943 60.9126 121.761 56.9818 122.136C58.8882 122.132 60.7913 121.976 62.673 121.67C64.2777 121.43 65.7822 120.742 67.0137 119.686C67.626 119.153 68.107 118.486 68.4191 117.737C68.7312 116.987 68.866 116.176 68.813 115.366Z" fill="black"/>
</g>
<path d="M38.7905 110.452C38.039 110.241 37.3083 109.962 36.6072 109.619C35.8784 109.343 35.1765 109.001 34.5102 108.596C35.2606 108.809 35.9912 109.086 36.6935 109.425C37.4224 109.702 38.1244 110.046 38.7905 110.452Z" fill="#263238"/>
<g opacity="0.2">
<path d="M43.1744 108.545C37.3062 107.423 31.4165 106.426 25.5052 105.555L21.1041 106.944C22.3381 109.239 24.776 110.702 27.3088 111.306C29.8416 111.91 32.4866 111.768 35.0755 111.531C37.9319 111.267 40.8659 110.866 43.3513 109.434C43.5411 109.326 43.7569 109.162 43.731 108.942C43.7051 108.722 43.4289 108.592 43.1744 108.545Z" fill="black"/>
</g>
<path d="M14.2909 91.0696L21.6865 107.423C21.8361 107.756 22.0782 108.039 22.3842 108.239C22.6902 108.439 23.0471 108.546 23.4124 108.549L44.9865 108.829L47.7048 107.367L43.4461 107.056L36.8185 91.1516C36.7154 90.9042 36.5418 90.6925 36.3193 90.5429C36.0968 90.3933 35.8353 90.3124 35.5672 90.3102L14.9036 90.1549C14.7933 90.1509 14.6839 90.1751 14.5857 90.2252C14.4874 90.2754 14.4037 90.3498 14.3423 90.4415C14.2809 90.5331 14.2439 90.6389 14.2349 90.7489C14.2259 90.8588 14.2452 90.9692 14.2909 91.0696Z" fill="#E0E0E0"/>
<path d="M14.2909 91.0696C14.2556 91.0088 14.2336 90.9411 14.2262 90.8712C14.2126 90.7676 14.2238 90.6623 14.2591 90.564C14.2944 90.4656 14.3526 90.3772 14.429 90.3059C14.5469 90.1965 14.6998 90.1323 14.8605 90.1247H16.7547L25.4059 90.1549L31.4208 90.1851L34.782 90.2067H35.645C35.9646 90.2297 36.2677 90.357 36.5079 90.5691C36.7394 90.7862 36.9104 91.0598 37.0041 91.363L37.358 92.226C39.2435 96.7436 41.3276 101.74 43.5368 107.022L43.4332 106.948L47.5452 107.25H47.692L48.1234 107.28L47.7567 107.479L45.0383 108.942H45.0081H44.9779L28.6248 108.717L24.9744 108.665C24.379 108.665 23.8094 108.665 23.2183 108.631C22.923 108.596 22.639 108.497 22.3863 108.34C22.1336 108.184 21.9183 107.974 21.7556 107.725C20.7934 105.701 19.9908 103.842 19.2098 102.116L15.594 94.0296C15.1625 93.0847 14.8519 92.3468 14.6275 91.8334C14.5196 91.5917 14.4419 91.4019 14.3815 91.2638C14.3211 91.1257 14.3039 91.0653 14.3039 91.0653C14.3407 91.1266 14.3739 91.19 14.4031 91.2552L14.6706 91.8161C14.9036 92.3209 15.2402 93.0545 15.676 93.9735L19.3608 102.034C20.1418 103.729 20.9789 105.636 21.9195 107.604C22.0659 107.828 22.2603 108.018 22.4886 108.158C22.7169 108.298 22.9735 108.386 23.2399 108.415C23.7922 108.441 24.3919 108.437 24.9658 108.445L28.6161 108.489L44.9693 108.687H44.9089L47.6272 107.22L47.679 107.449H47.5323L43.4203 107.151H43.3469L43.3167 107.086C41.1205 101.796 39.0407 96.7997 37.1595 92.2778L36.81 91.4364C36.733 91.162 36.5841 90.9132 36.3785 90.7158C36.1734 90.5307 35.912 90.4198 35.6363 90.4008H34.7734L31.4121 90.3706L25.4016 90.3102L16.7417 90.2067H15.3869H14.8519C14.7664 90.2098 14.6825 90.2304 14.6052 90.2671C14.5279 90.3037 14.4589 90.3557 14.4024 90.4199C14.3459 90.4841 14.303 90.5591 14.2764 90.6404C14.2499 90.7217 14.2401 90.8076 14.2478 90.8927C14.2589 90.9525 14.2733 91.0115 14.2909 91.0696Z" fill="#263238"/>
<path d="M42.7946 108.799C42.7543 108.743 42.721 108.682 42.6953 108.618L42.4494 108.092C42.2336 107.6 41.9402 106.935 41.5864 106.133C40.8658 104.471 39.8864 102.176 38.8336 99.6216C37.7807 97.0672 36.8487 94.7502 36.2058 93.0631C35.8822 92.2001 35.6276 91.5313 35.4637 91.0524C35.386 90.8323 35.3256 90.6511 35.2738 90.5001C35.2497 90.4359 35.2323 90.3694 35.222 90.3016C35.2615 90.3576 35.2935 90.4185 35.317 90.4828L35.5413 91.0222C35.7441 91.5227 36.016 92.1915 36.3439 93.007C37.0429 94.707 37.9878 97.0025 39.0277 99.544C40.0676 102.085 41.0255 104.372 41.7245 106.072L42.5314 108.057C42.6133 108.277 42.6824 108.454 42.7385 108.601C42.7684 108.663 42.7874 108.73 42.7946 108.799Z" fill="#263238"/>
<path d="M29.4188 98.9959C29.4196 99.2062 29.358 99.4121 29.2417 99.5873C29.1254 99.7625 28.9597 99.8992 28.7655 99.9801C28.5714 100.061 28.3576 100.082 28.1513 100.042C27.945 100.001 27.7555 99.8995 27.6068 99.7508C27.4581 99.6021 27.3569 99.4126 27.3161 99.2063C27.2753 99 27.2966 98.7862 27.3775 98.5921C27.4584 98.3979 27.5951 98.2322 27.7703 98.1159C27.9455 97.9996 28.1514 97.938 28.3616 97.9388C28.642 97.9388 28.9109 98.0502 29.1092 98.2484C29.3074 98.4467 29.4188 98.7156 29.4188 98.9959Z" fill="white"/>
<path d="M50.4102 72.6885C50.4447 72.6885 50.134 73.2883 49.6982 74.2548C48.5576 76.7778 47.8124 79.4614 47.489 82.2113C47.3596 83.2684 47.3251 83.9372 47.2863 83.9372C47.2631 83.7828 47.2631 83.6257 47.2863 83.4713C47.2863 83.1735 47.2863 82.742 47.3467 82.207C47.5905 79.4224 48.3484 76.7071 49.5817 74.1987C49.8191 73.7197 50.0132 73.3357 50.1815 73.0855C50.2414 72.9444 50.3182 72.8111 50.4102 72.6885Z" fill="#263238"/>
<path d="M83 84.2522C82.923 84.2757 82.8431 84.2888 82.7626 84.291L82.0766 84.3558L79.5136 84.5715L70.7502 85.2317H70.638V85.1195C70.5646 83.9545 70.487 82.7248 70.4093 81.4648C70.2842 79.2643 70.1763 77.15 70.1418 75.2558C70.0302 73.5494 70.4186 71.8475 71.2593 70.3585C71.8365 69.3542 72.6882 68.5354 73.7145 67.9983C73.9915 67.8594 74.2803 67.7453 74.5774 67.6574C74.6807 67.6251 74.7859 67.5992 74.8924 67.5797C74.8924 67.6143 74.4609 67.7049 73.749 68.0759C72.7595 68.6317 71.9427 69.45 71.3888 70.4405C70.5892 71.9146 70.2312 73.5879 70.3575 75.2601C70.4007 77.163 70.5129 79.26 70.638 81.4605C70.7157 82.7205 70.789 83.9502 70.8624 85.1109L70.7416 85.0073L79.5136 84.4291L82.1025 84.2781L82.7885 84.2522H83Z" fill="#263238"/>
<path d="M61.4994 91.7255C61.3663 91.6996 61.2382 91.653 61.1196 91.5874C60.9712 91.5251 60.8271 91.4531 60.6882 91.3717C60.5021 91.2715 60.322 91.1606 60.1488 91.0394C59.6898 90.7297 59.2659 90.3709 58.8846 89.9694C58.4233 89.4717 58.0181 88.9247 57.6764 88.3384C57.3468 87.7454 57.0848 87.1172 56.8954 86.4657C56.7452 85.9335 56.6526 85.3867 56.6193 84.8347C56.6066 84.6235 56.6066 84.4117 56.6193 84.2004C56.6199 84.0402 56.6315 83.8802 56.6538 83.7215C56.6578 83.5844 56.684 83.4489 56.7315 83.3202C56.7746 83.3202 56.7013 83.9027 56.7919 84.8218C56.8461 85.3585 56.9516 85.8887 57.1069 86.4053C57.3053 87.037 57.5669 87.647 57.8879 88.2262C58.2182 88.7972 58.6072 89.3323 59.0485 89.8226C59.4155 90.22 59.8185 90.5826 60.2524 90.9057C60.9859 91.4537 61.5209 91.6866 61.4994 91.7255Z" fill="#263238"/>
</svg>
