<svg width="90" height="136" viewBox="0 0 90 136" fill="none" xmlns="http://www.w3.org/2000/svg">
<path d="M47.3657 20.4969L46.0018 16.7841L45.3091 13.66L48.4958 12.9535L49.1884 16.0777L49.5213 20.019L47.3657 20.4969ZM50.4115 23.7385C50.1683 24.1202 49.8229 24.3607 49.3751 24.46C48.9273 24.5592 48.5073 24.4885 48.1152 24.2476C47.7336 24.0045 47.4919 23.6538 47.3904 23.1956C47.2911 22.7478 47.363 22.333 47.6062 21.9514C47.8574 21.557 48.207 21.3101 48.6548 21.2109C49.1026 21.1116 49.5184 21.1887 49.9024 21.4423C50.2945 21.6831 50.5402 22.0275 50.6395 22.4753C50.7411 22.9335 50.6651 23.3546 50.4115 23.7385Z" fill="#EB5757"/>
<path d="M62.804 20.3204C62.9282 19.901 63.1625 19.5421 63.5068 19.2436C63.8643 18.9379 64.2196 18.715 64.5726 18.5748C64.9287 18.4244 65.2652 18.246 65.5822 18.0395C65.9125 17.8258 66.1155 17.5912 66.1913 17.3355C66.3367 16.8446 66.1077 16.5097 65.5043 16.331C64.8804 16.1462 64.2698 16.4048 63.6725 17.1067L61.736 15.0813C62.3189 14.3528 63.0217 13.8768 63.8444 13.6533C64.6774 13.4328 65.5285 13.4513 66.3978 13.7088C67.3796 13.9996 68.1314 14.5227 68.653 15.2779C69.1777 16.023 69.3007 16.8659 69.022 17.8068C68.8947 18.2364 68.6896 18.6095 68.4067 18.9262C68.137 19.2357 67.8482 19.4783 67.5403 19.6541C67.2324 19.8299 66.929 19.9903 66.6301 20.1354C66.3343 20.2703 66.0692 20.4142 65.8347 20.5673C65.6105 20.7234 65.4696 20.8986 65.412 21.0929L62.804 20.3204ZM64.1419 24.7049C63.7441 24.9208 63.3254 24.9637 62.8856 24.8334C62.4458 24.7031 62.1129 24.4376 61.8867 24.0369C61.6708 23.6392 61.6295 23.2153 61.7628 22.7653C61.893 22.3255 62.157 21.9977 62.5547 21.7817C62.9657 21.5586 63.3911 21.5122 63.8308 21.6424C64.2706 21.7727 64.597 22.0418 64.8099 22.4497C65.036 22.8505 65.084 23.2707 64.9537 23.7105C64.8204 24.1605 64.5498 24.492 64.1419 24.7049Z" fill="#418DD9"/>
<path fill-rule="evenodd" clip-rule="evenodd" d="M56.2231 46.772C57.5581 45.2234 58.4617 43.3256 58.3107 41.199C57.8757 35.0718 49.2448 36.4197 47.5659 39.5122C45.887 42.6047 46.0865 50.449 48.2563 51.0017C49.1217 51.2221 50.965 50.6822 52.8412 49.5647L51.6636 57.7977H58.6169L56.2231 46.772Z" fill="#B28B67"/>
<path fill-rule="evenodd" clip-rule="evenodd" d="M61.3422 39.1594C61.5668 38.9395 61.6893 38.6255 61.7953 38.3275C61.9053 38.0178 62.0123 37.705 62.0853 37.3827C62.2313 36.7387 62.2327 35.9981 61.7678 35.4981C61.395 35.0971 60.8356 34.9172 60.3193 34.8781C59.9753 34.8521 59.622 34.8997 59.2923 35.0068C58.9652 35.113 58.6832 35.3248 58.366 35.4563C58.3539 34.7623 58.2336 34.0362 57.8774 33.4436C57.5345 32.8735 56.9879 32.5535 56.3655 32.4689C55.7266 32.382 55.0957 32.5298 54.5237 32.8354C54.3805 32.912 54.2386 32.9922 54.1029 33.083C53.9892 33.159 53.871 33.2505 53.7376 33.2814C53.5889 33.3159 53.5152 33.2311 53.4186 33.1238C53.3053 32.9982 53.1776 32.8874 53.0425 32.7893C52.4452 32.3554 51.6615 32.177 50.9694 32.4371C50.6506 32.5569 50.3405 32.7604 50.1242 33.0408C49.9314 33.2908 49.7938 33.6873 49.5277 33.8615C49.4148 33.9354 49.335 33.8375 49.2322 33.7651C49.0777 33.6563 48.9304 33.5363 48.7741 33.4305C48.5545 33.2818 48.3168 33.1706 48.0622 33.1124C47.6895 33.0272 47.1745 33.0472 47.0679 33.5295C47.0279 33.7107 47.0586 33.9045 47.0715 34.0871C47.0893 34.3378 47.1078 34.5884 47.1298 34.8387C47.1465 35.0287 47.1677 35.2123 47.204 35.3989C47.2233 35.4984 47.2839 35.6839 47.2407 35.7835C47.1868 35.908 46.9378 35.8372 46.8314 35.8415C46.6213 35.8501 46.4103 35.8865 46.2161 35.9753C46.0655 36.044 45.9072 36.1452 45.8437 36.3157C45.8046 36.4205 45.8149 36.5281 45.8333 36.6358C45.8555 36.7652 45.8302 36.8338 45.8136 36.9643C45.5315 36.827 44.5536 36.5219 44.4306 37.0216C44.3896 37.188 44.4829 37.3761 44.554 37.5164C44.6789 37.7626 44.8425 37.9876 45.0098 38.2021C45.3588 38.6497 45.7755 39.0358 46.2237 39.3659C45.6985 39.5967 45.5614 40.2773 46.0161 40.6827C46.2169 40.8618 46.4869 40.9016 46.7401 40.8902C46.8328 40.886 46.9664 40.8508 47.0394 40.8667C47.0786 40.8753 47.1206 40.9082 47.175 40.9119C47.5324 40.936 47.9359 40.8509 48.2853 40.7726C48.9078 40.6329 49.4972 40.3414 49.9785 39.8975C50.102 39.7836 50.204 39.7181 50.3702 39.7198C50.5158 39.7212 50.6587 39.7607 50.8042 39.7643C51.1891 39.774 51.5362 39.5881 51.8937 39.4643C51.9156 39.9415 52.0531 40.4671 52.2507 40.8964C52.4118 41.2466 52.7481 41.2974 53.0787 41.3281C54.1358 41.4264 55.1966 41.3167 56.255 41.3182C55.2304 41.5471 54.1717 41.6414 53.1562 41.9107C52.6972 42.0324 53.0477 42.3381 53.244 42.5501C53.5672 42.8991 53.8075 43.3315 53.9741 43.787C54.4753 43.1414 55.3612 42.716 56.1461 42.9143C57.0133 43.1334 57.6239 44.2924 57.0694 45.1255C56.7474 45.6092 56.166 45.7959 55.6823 46.0037C56.0597 46.3915 56.1509 46.9641 56.3781 47.4465C56.4901 47.6844 56.6474 47.9534 56.8979 48.0363C56.9906 48.067 57.0993 48.0696 57.1724 48.1443C57.263 48.2367 57.2846 48.3401 57.4002 48.4195C57.8618 48.7367 58.5829 48.7122 58.992 48.2984C59.362 47.9241 59.2658 47.3318 58.9567 46.9523C59.4486 46.7497 60.3448 46.4891 60.1493 45.7318C61.2152 45.6618 63.803 43.9535 62.3725 42.7052C63.1576 42.2668 63.8789 41.1952 63.3746 40.2505C62.9862 39.5231 62.0832 39.198 61.3422 39.1594Z" fill="#CBAC4F"/>
<path fill-rule="evenodd" clip-rule="evenodd" d="M71.1843 93.5866H48.8019L45.8691 129.089H79.1871L71.1843 93.5866Z" fill="#C5CFD6"/>
<path fill-rule="evenodd" clip-rule="evenodd" d="M71.1843 93.5866H64.3004L60.1803 129.089H79.1871L71.1843 93.5866Z" fill="black" fill-opacity="0.1"/>
<path fill-rule="evenodd" clip-rule="evenodd" d="M23.2843 87.5042C20.898 86.0881 16.8942 87.9075 16.8969 89.9328C16.9052 95.9924 22.5011 124.551 22.7933 126.357C23.0855 128.162 26.2154 128.639 26.3976 126.363C26.6876 122.741 27.2264 110.202 26.6873 104.398C26.4648 102.003 26.2252 99.7213 25.9892 97.6858C28.9256 102.926 33.4669 110.429 39.6131 120.194L42.9497 118.688C40.3296 110.157 38.1811 104.134 36.5043 100.62C33.6332 94.6029 30.9411 89.4499 29.8081 87.6347C28.0258 84.7796 24.9235 85.7758 23.2843 87.5042Z" fill="#B28B67"/>
<path fill-rule="evenodd" clip-rule="evenodd" d="M42.7112 113.95L31.2592 87.1409C28.5158 82.7797 20.8238 88.0284 21.7594 90.5579C23.8835 96.3006 34.686 114.892 35.3188 116.603L42.7112 113.95Z" fill="#1F28CF"/>
<path fill-rule="evenodd" clip-rule="evenodd" d="M43.3372 117.002C44.0524 117.586 44.5179 118.062 44.7337 118.431C44.9963 118.88 45.304 119.577 45.6571 120.524C45.1327 120.823 40.4203 123.508 31.5198 128.58C30.4471 127.584 30.2783 126.812 31.0136 126.265C31.7489 125.718 32.3556 125.256 32.8338 124.88L37.7034 118.227C37.7971 118.099 37.9783 118.071 38.1081 118.165C38.1103 118.166 38.1125 118.168 38.1146 118.17L39.1321 118.946C40.0634 118.868 40.7581 118.699 41.2162 118.438C41.5884 118.225 42.0151 117.783 42.4963 117.111L42.4963 117.111C42.681 116.853 43.0427 116.793 43.3043 116.977C43.3155 116.985 43.3265 116.994 43.3372 117.002Z" fill="#E4E4E4"/>
<path fill-rule="evenodd" clip-rule="evenodd" d="M27.1304 124.909C27.4546 125.765 27.6166 126.404 27.6166 126.829C27.6166 127.345 27.5296 128.099 27.3555 129.089C26.7494 129.089 21.3025 129.089 11.0147 129.089C10.5901 127.702 10.8352 126.953 11.7501 126.842C12.665 126.732 13.425 126.632 14.0301 126.543L21.6252 123.196C21.7713 123.132 21.9426 123.197 22.0078 123.341C22.0089 123.344 22.01 123.346 22.011 123.349L22.4992 124.519C23.3462 124.91 24.0344 125.105 24.5639 125.105C24.9942 125.105 25.5883 124.933 26.3464 124.59L26.3464 124.59C26.6373 124.458 26.9812 124.584 27.1146 124.872C27.1203 124.884 27.1256 124.897 27.1304 124.909Z" fill="#E4E4E4"/>
<path fill-rule="evenodd" clip-rule="evenodd" d="M16.0943 91.9927C16.0943 99.5991 19.7496 117.342 19.752 119.017L27.6166 119.023C26.4655 103.191 26.0573 95.1899 26.3921 95.0193C26.8942 94.7635 46.9771 97.0008 53.0002 97.0008C61.6857 97.0008 65.2786 91.5882 65.5702 81.5615H48.3647C44.8615 81.932 26.5885 85.5742 19.8022 86.8263C16.8969 87.3624 16.0943 89.8973 16.0943 91.9927Z" fill="#2B44FF"/>
<path fill-rule="evenodd" clip-rule="evenodd" d="M45.6843 63.7244L35.6281 58.2815C33.9558 56.3191 32.3081 54.795 30.6851 53.7092C30.1891 53.5046 29.3219 53.3807 30.1329 54.8034C30.944 56.226 31.7324 57.7584 31.3192 58.1967C30.906 58.635 29.8756 58.0227 29.3826 58.751C29.054 59.2364 30.8143 60.0034 34.6636 61.0517L41.9707 67.6633L45.6843 63.7244ZM29.9344 68.3167L25.5172 65.9187C24.8974 63.588 24.1565 62.4154 23.2945 62.4008C22.6323 62.0963 23.7855 65.0413 22.5302 64.7859C21.2749 64.5305 18.211 62.2787 17.6831 62.7359C16.9021 63.4123 17.5985 65.4893 18.419 66.5225C19.9526 68.4535 21.2223 69.1139 24.3606 69.9786C26.0015 70.4307 27.7756 71.337 29.6829 72.6974L29.9344 68.3167Z" fill="#997659"/>
<path fill-rule="evenodd" clip-rule="evenodd" d="M50.5817 62.512C47.0594 62.4752 42.3623 61.74 37.3506 58.5962L35.3824 62.9338C38.8393 66.3242 43.7002 69.1098 47.9504 68.9918C51.2999 68.8989 53.0117 64.8951 50.5817 62.512Z" fill="#2026A2"/>
<path fill-rule="evenodd" clip-rule="evenodd" d="M45.8389 69.4681C42.0995 70.3897 35.8288 69.3029 27.0268 66.2077C24.8435 70.6713 23.8343 73.8535 23.999 75.7543C31.5498 79.6521 38.0216 81.39 43.3534 81.5047C43.184 84.6311 43.569 87.6061 44.8626 90.3243C47.5221 95.9126 63.0945 90.7372 68.3304 91.7559C71.6093 81.2326 65.2695 76.956 65.2644 70.2226C65.2588 62.8489 59.2675 51.4989 58.386 51.4989H50.3471C49.9036 57.1303 47.6711 63.3367 45.8389 69.4681Z" fill="#1F28CF"/>
</svg>
